<?xml version="1.0" encoding="us-ascii" standalone="no"?><svg xmlns="http://www.w3.org/2000/svg" xmlns:xlink="http://www.w3.org/1999/xlink" contentStyleType="text/css" height="383px" preserveAspectRatio="none" style="width:619px;height:383px;background:#FFFFFF;" version="1.1" viewBox="0 0 619 383" width="619px" zoomAndPan="magnify"><defs/><g><text fill="#000000" font-family="sans-serif" font-size="14" font-weight="bold" lengthAdjust="spacing" textLength="300" x="161.75" y="29.5332">Single Command CLIENT_SERVER Miss Ack</text><line style="stroke:#181818;stroke-width:1.0;" x1="283.75" x2="283.75" y1="182.2734" y2="254.4766"/><polygon fill="#181818" points="279.75,192.2734,283.75,182.2734,287.75,192.2734,283.75,188.2734" style="stroke:#181818;stroke-width:1.0;"/><polygon fill="#181818" points="279.75,244.4766,283.75,254.4766,287.75,244.4766,283.75,248.4766" style="stroke:#181818;stroke-width:1.0;"/><text fill="#000000" font-family="sans-serif" font-size="13" lengthAdjust="spacing" textLength="40" x="287.75" y="223.6943">timer 1</text><line style="stroke:#181818;stroke-width:0.5;stroke-dasharray:5.0,5.0;" x1="28.5" x2="28.5" y1="76.2188" y2="345.6797"/><line style="stroke:#181818;stroke-width:0.5;stroke-dasharray:5.0,5.0;" x1="324.5" x2="324.5" y1="76.2188" y2="345.6797"/><rect fill="#E2E2F0" height="31.6094" rx="2.5" ry="2.5" style="stroke:#181818;stroke-width:0.5;" width="47" x="5" y="43.6094"/><text fill="#000000" font-family="sans-serif" font-size="14" lengthAdjust="spacing" textLength="33" x="12" y="65.1426">client</text><rect fill="#E2E2F0" height="31.6094" rx="2.5" ry="2.5" style="stroke:#181818;stroke-width:0.5;" width="54" x="297.5" y="43.6094"/><text fill="#000000" font-family="sans-serif" font-size="14" lengthAdjust="spacing" textLength="40" x="304.5" y="65.1426">server</text><rect fill="#E2E2F0" height="31.6094" rx="2.5" ry="2.5" style="stroke:#181818;stroke-width:0.5;" width="47" x="5" y="345.6797"/><text fill="#000000" font-family="sans-serif" font-size="14" lengthAdjust="spacing" textLength="33" x="12" y="367.2129">client</text><rect fill="#E2E2F0" height="31.6094" rx="2.5" ry="2.5" style="stroke:#181818;stroke-width:0.5;" width="54" x="297.5" y="345.6797"/><text fill="#000000" font-family="sans-serif" font-size="14" lengthAdjust="spacing" textLength="40" x="304.5" y="367.2129">server</text><polygon fill="#181818" points="312.5,102.5703,322.5,106.5703,312.5,110.5703,316.5,106.5703" style="stroke:#181818;stroke-width:1.0;"/><line style="stroke:#181818;stroke-width:1.0;" x1="28.5" x2="318.5" y1="106.5703" y2="106.5703"/><text fill="#000000" font-family="sans-serif" font-size="13" lengthAdjust="spacing" textLength="272" x="35.5" y="101.7139">Request [ID=01, PRIORITY=APP, COMMAND]</text><line style="stroke:#181818;stroke-width:1.0;" x1="324.5" x2="366.5" y1="136.9219" y2="136.9219"/><line style="stroke:#181818;stroke-width:1.0;" x1="366.5" x2="366.5" y1="136.9219" y2="149.9219"/><line style="stroke:#181818;stroke-width:1.0;" x1="325.5" x2="366.5" y1="149.9219" y2="149.9219"/><polygon fill="#181818" points="335.5,145.9219,325.5,149.9219,335.5,153.9219,331.5,149.9219" style="stroke:#181818;stroke-width:1.0;"/><text fill="#000000" font-family="sans-serif" font-size="13" lengthAdjust="spacing" textLength="281" x="331.5" y="132.0654">Process [ID=01, PRIORITY=USER, COMMAND]</text><polygon fill="#181818" points="39.5,176.2734,29.5,180.2734,39.5,184.2734,35.5,180.2734" style="stroke:#181818;stroke-width:1.0;"/><line style="stroke:#181818;stroke-width:1.0;" x1="33.5" x2="323.5" y1="180.2734" y2="180.2734"/><text fill="#000000" font-family="sans-serif" font-size="13" lengthAdjust="spacing" textLength="142" x="45.5" y="175.417">Send [ID=01, Response]</text><line style="stroke:#181818;stroke-width:1.0;" x1="28.5" x2="70.5" y1="210.625" y2="210.625"/><line style="stroke:#181818;stroke-width:1.0;" x1="70.5" x2="70.5" y1="210.625" y2="223.625"/><line style="stroke:#181818;stroke-width:1.0;" x1="29.5" x2="70.5" y1="223.625" y2="223.625"/><polygon fill="#181818" points="39.5,219.625,29.5,223.625,39.5,227.625,35.5,223.625" style="stroke:#181818;stroke-width:1.0;"/><text fill="#000000" font-family="sans-serif" font-size="13" lengthAdjust="spacing" textLength="110" x="35.5" y="205.7686">Process Response</text><line style="stroke:#181818;stroke-width:1.0;" x1="324.5" x2="366.5" y1="253.9766" y2="253.9766"/><line style="stroke:#181818;stroke-width:1.0;" x1="366.5" x2="366.5" y1="253.9766" y2="266.9766"/><line style="stroke:#181818;stroke-width:1.0;" x1="325.5" x2="366.5" y1="266.9766" y2="266.9766"/><polygon fill="#181818" points="335.5,262.9766,325.5,266.9766,335.5,270.9766,331.5,266.9766" style="stroke:#181818;stroke-width:1.0;"/><text fill="#000000" font-family="sans-serif" font-size="13" lengthAdjust="spacing" textLength="119" x="331.5" y="249.1201">timeout with no ACK</text><polygon fill="#181818" points="39.5,293.3281,29.5,297.3281,39.5,301.3281,35.5,297.3281" style="stroke:#181818;stroke-width:1.0;"/><line style="stroke:#181818;stroke-width:1.0;" x1="33.5" x2="323.5" y1="297.3281" y2="297.3281"/><text fill="#000000" font-family="sans-serif" font-size="13" lengthAdjust="spacing" textLength="156" x="45.5" y="292.4717">Resend [ID=01, Response]</text><polygon fill="#181818" points="312.5,323.6797,322.5,327.6797,312.5,331.6797,316.5,327.6797" style="stroke:#181818;stroke-width:1.0;"/><line style="stroke:#181818;stroke-width:1.0;" x1="28.5" x2="318.5" y1="327.6797" y2="327.6797"/><text fill="#000000" font-family="sans-serif" font-size="13" lengthAdjust="spacing" textLength="57" x="35.5" y="322.8232">OK ID=01</text><line style="stroke:#181818;stroke-width:1.0;" x1="283.75" x2="283.75" y1="182.2734" y2="254.4766"/><polygon fill="#181818" points="279.75,192.2734,283.75,182.2734,287.75,192.2734,283.75,188.2734" style="stroke:#181818;stroke-width:1.0;"/><polygon fill="#181818" points="279.75,244.4766,283.75,254.4766,287.75,244.4766,283.75,248.4766" style="stroke:#181818;stroke-width:1.0;"/><text fill="#000000" font-family="sans-serif" font-size="13" lengthAdjust="spacing" textLength="40" x="287.75" y="223.6943">timer 1</text><!--SRC=[XOzDIyD048Rlyol6dYkOQsc5aEOGQfgmgO98AKiSwj9cD-vE52p-TnVNfIazU1gOUJ-UOSL7macZzDxFp7ITrA-OFHJvUhDhSl6K2ooLSvYsXmdSz5RkEubCvWlP3WJGIykgLRtKZErHaUQBbIFxGHOWdF3s_cypGq7l0pd6bsAvk4kcM8kY4iNcUP7MzHIpgYpJzN8B4FHZPsrDInxfoldeWKVMasDFadpZEI9WpB0X_sNq2tAzqOws8yeeZ5rH0t3orelCYCMg8pCmVYf-GsqmpLPmtUo3_kkEWTKAVrLm_cJkpm4Wz5bCVW00]--></g></svg>