<?xml version="1.0" encoding="us-ascii" standalone="no"?><svg xmlns="http://www.w3.org/2000/svg" xmlns:xlink="http://www.w3.org/1999/xlink" contentStyleType="text/css" height="666px" preserveAspectRatio="none" style="width:628px;height:666px;background:#FFFFFF;" version="1.1" viewBox="0 0 628 666" width="628px" zoomAndPan="magnify"><defs/><g><text fill="#000000" font-family="sans-serif" font-size="14" font-weight="bold" lengthAdjust="spacing" textLength="354" x="136.75" y="29.5332">Multiple Commands CLIENT_SERVER ALL SUCCESS</text><line style="stroke:#181818;stroke-width:0.5;stroke-dasharray:5.0,5.0;" x1="28" x2="28" y1="76.2188" y2="629.4922"/><line style="stroke:#181818;stroke-width:0.5;stroke-dasharray:5.0,5.0;" x1="333.5" x2="333.5" y1="76.2188" y2="629.4922"/><rect fill="#E2E2F0" height="31.6094" rx="2.5" ry="2.5" style="stroke:#181818;stroke-width:0.5;" width="47" x="5" y="43.6094"/><text fill="#000000" font-family="sans-serif" font-size="14" lengthAdjust="spacing" textLength="33" x="12" y="65.1426">client</text><rect fill="#E2E2F0" height="31.6094" rx="2.5" ry="2.5" style="stroke:#181818;stroke-width:0.5;" width="47" x="5" y="628.4922"/><text fill="#000000" font-family="sans-serif" font-size="14" lengthAdjust="spacing" textLength="33" x="12" y="650.0254">client</text><rect fill="#E2E2F0" height="31.6094" rx="2.5" ry="2.5" style="stroke:#181818;stroke-width:0.5;" width="54" x="306.5" y="43.6094"/><text fill="#000000" font-family="sans-serif" font-size="14" lengthAdjust="spacing" textLength="40" x="313.5" y="65.1426">server</text><rect fill="#E2E2F0" height="31.6094" rx="2.5" ry="2.5" style="stroke:#181818;stroke-width:0.5;" width="54" x="306.5" y="628.4922"/><text fill="#000000" font-family="sans-serif" font-size="14" lengthAdjust="spacing" textLength="40" x="313.5" y="650.0254">server</text><polygon fill="#181818" points="321.5,104.5703,331.5,108.5703,321.5,112.5703,325.5,108.5703" style="stroke:#181818;stroke-width:1.0;"/><line style="stroke:#181818;stroke-width:1.0;" x1="28.5" x2="327.5" y1="108.5703" y2="108.5703"/><text fill="#000000" font-family="sans-serif" font-size="13" lengthAdjust="spacing" textLength="272" x="35.5" y="103.7139">Request [ID=01, PRIORITY=APP, COMMAND]</text><polygon fill="#181818" points="321.5,134.9219,331.5,138.9219,321.5,142.9219,325.5,138.9219" style="stroke:#181818;stroke-width:1.0;"/><line style="stroke:#181818;stroke-width:1.0;" x1="28.5" x2="327.5" y1="138.9219" y2="138.9219"/><text fill="#000000" font-family="sans-serif" font-size="13" lengthAdjust="spacing" textLength="281" x="35.5" y="134.0654">Request [ID=02, PRIORITY=USER, COMMAND]</text><polygon fill="#181818" points="321.5,165.2734,331.5,169.2734,321.5,173.2734,325.5,169.2734" style="stroke:#181818;stroke-width:1.0;"/><line style="stroke:#181818;stroke-width:1.0;" x1="28.5" x2="327.5" y1="169.2734" y2="169.2734"/><text fill="#000000" font-family="sans-serif" font-size="13" lengthAdjust="spacing" textLength="272" x="35.5" y="164.417">Request [ID=03, PRIORITY=APP, COMMAND]</text><line style="stroke:#181818;stroke-width:1.0;" x1="333.5" x2="375.5" y1="199.625" y2="199.625"/><line style="stroke:#181818;stroke-width:1.0;" x1="375.5" x2="375.5" y1="199.625" y2="212.625"/><line style="stroke:#181818;stroke-width:1.0;" x1="334.5" x2="375.5" y1="212.625" y2="212.625"/><polygon fill="#181818" points="344.5,208.625,334.5,212.625,344.5,216.625,340.5,212.625" style="stroke:#181818;stroke-width:1.0;"/><text fill="#000000" font-family="sans-serif" font-size="13" lengthAdjust="spacing" textLength="281" x="340.5" y="194.7686">Process [ID=02, PRIORITY=USER, COMMAND]</text><polygon fill="#181818" points="39.5,238.9766,29.5,242.9766,39.5,246.9766,35.5,242.9766" style="stroke:#181818;stroke-width:1.0;"/><line style="stroke:#181818;stroke-width:1.0;" x1="33.5" x2="332.5" y1="242.9766" y2="242.9766"/><text fill="#000000" font-family="sans-serif" font-size="13" lengthAdjust="spacing" textLength="142" x="45.5" y="238.1201">Send [ID=02, Response]</text><line style="stroke:#181818;stroke-width:1.0;" x1="28.5" x2="70.5" y1="273.3281" y2="273.3281"/><line style="stroke:#181818;stroke-width:1.0;" x1="70.5" x2="70.5" y1="273.3281" y2="286.3281"/><line style="stroke:#181818;stroke-width:1.0;" x1="29.5" x2="70.5" y1="286.3281" y2="286.3281"/><polygon fill="#181818" points="39.5,282.3281,29.5,286.3281,39.5,290.3281,35.5,286.3281" style="stroke:#181818;stroke-width:1.0;"/><text fill="#000000" font-family="sans-serif" font-size="13" lengthAdjust="spacing" textLength="110" x="35.5" y="268.4717">Process Response</text><line style="stroke:#181818;stroke-width:1.0;" x1="333.5" x2="375.5" y1="316.6797" y2="316.6797"/><line style="stroke:#181818;stroke-width:1.0;" x1="375.5" x2="375.5" y1="316.6797" y2="329.6797"/><line style="stroke:#181818;stroke-width:1.0;" x1="334.5" x2="375.5" y1="329.6797" y2="329.6797"/><polygon fill="#181818" points="344.5,325.6797,334.5,329.6797,344.5,333.6797,340.5,329.6797" style="stroke:#181818;stroke-width:1.0;"/><text fill="#000000" font-family="sans-serif" font-size="13" lengthAdjust="spacing" textLength="272" x="340.5" y="311.8232">Process [ID=03, PRIORITY=APP, COMMAND]</text><polygon fill="#181818" points="39.5,356.0313,29.5,360.0313,39.5,364.0313,35.5,360.0313" style="stroke:#181818;stroke-width:1.0;"/><line style="stroke:#181818;stroke-width:1.0;" x1="33.5" x2="332.5" y1="360.0313" y2="360.0313"/><text fill="#000000" font-family="sans-serif" font-size="13" lengthAdjust="spacing" textLength="142" x="45.5" y="355.1748">Send [ID=03, Response]</text><line style="stroke:#181818;stroke-width:1.0;" x1="28.5" x2="70.5" y1="390.3828" y2="390.3828"/><line style="stroke:#181818;stroke-width:1.0;" x1="70.5" x2="70.5" y1="390.3828" y2="403.3828"/><line style="stroke:#181818;stroke-width:1.0;" x1="29.5" x2="70.5" y1="403.3828" y2="403.3828"/><polygon fill="#181818" points="39.5,399.3828,29.5,403.3828,39.5,407.3828,35.5,403.3828" style="stroke:#181818;stroke-width:1.0;"/><text fill="#000000" font-family="sans-serif" font-size="13" lengthAdjust="spacing" textLength="110" x="35.5" y="385.5264">Process Response</text><polygon fill="#181818" points="321.5,429.7344,331.5,433.7344,321.5,437.7344,325.5,433.7344" style="stroke:#181818;stroke-width:1.0;"/><line style="stroke:#181818;stroke-width:1.0;" x1="28.5" x2="327.5" y1="433.7344" y2="433.7344"/><text fill="#000000" font-family="sans-serif" font-size="13" lengthAdjust="spacing" textLength="37" x="35.5" y="428.8779">OK 02</text><polygon fill="#181818" points="321.5,460.0859,331.5,464.0859,321.5,468.0859,325.5,464.0859" style="stroke:#181818;stroke-width:1.0;"/><line style="stroke:#181818;stroke-width:1.0;" x1="28.5" x2="327.5" y1="464.0859" y2="464.0859"/><text fill="#000000" font-family="sans-serif" font-size="13" lengthAdjust="spacing" textLength="37" x="35.5" y="459.2295">OK 03</text><line style="stroke:#181818;stroke-width:1.0;" x1="333.5" x2="375.5" y1="494.4375" y2="494.4375"/><line style="stroke:#181818;stroke-width:1.0;" x1="375.5" x2="375.5" y1="494.4375" y2="507.4375"/><line style="stroke:#181818;stroke-width:1.0;" x1="334.5" x2="375.5" y1="507.4375" y2="507.4375"/><polygon fill="#181818" points="344.5,503.4375,334.5,507.4375,344.5,511.4375,340.5,507.4375" style="stroke:#181818;stroke-width:1.0;"/><text fill="#000000" font-family="sans-serif" font-size="13" lengthAdjust="spacing" textLength="272" x="340.5" y="489.5811">Process [ID=01, PRIORITY=APP, COMMAND]</text><polygon fill="#181818" points="39.5,533.7891,29.5,537.7891,39.5,541.7891,35.5,537.7891" style="stroke:#181818;stroke-width:1.0;"/><line style="stroke:#181818;stroke-width:1.0;" x1="33.5" x2="332.5" y1="537.7891" y2="537.7891"/><text fill="#000000" font-family="sans-serif" font-size="13" lengthAdjust="spacing" textLength="142" x="45.5" y="532.9326">Send [ID=01, Response]</text><line style="stroke:#181818;stroke-width:1.0;" x1="28.5" x2="70.5" y1="568.1406" y2="568.1406"/><line style="stroke:#181818;stroke-width:1.0;" x1="70.5" x2="70.5" y1="568.1406" y2="581.1406"/><line style="stroke:#181818;stroke-width:1.0;" x1="29.5" x2="70.5" y1="581.1406" y2="581.1406"/><polygon fill="#181818" points="39.5,577.1406,29.5,581.1406,39.5,585.1406,35.5,581.1406" style="stroke:#181818;stroke-width:1.0;"/><text fill="#000000" font-family="sans-serif" font-size="13" lengthAdjust="spacing" textLength="110" x="35.5" y="563.2842">Process Response</text><polygon fill="#181818" points="321.5,607.4922,331.5,611.4922,321.5,615.4922,325.5,611.4922" style="stroke:#181818;stroke-width:1.0;"/><line style="stroke:#181818;stroke-width:1.0;" x1="28.5" x2="327.5" y1="611.4922" y2="611.4922"/><text fill="#000000" font-family="sans-serif" font-size="13" lengthAdjust="spacing" textLength="37" x="35.5" y="606.6357">OK 01</text><!--SRC=[dP112u8m68Rl-nKVdGjIRuA1B0-IfcmLH4I8VOU1JNEptvzWbb5cTHllteVtsRJG6S8eh38jYlf4yzCfaKS5DF2zvUh0FRRn6BX107nDgSVvY1H9gKKgYaHgI3E1KZz52iiBbeGqLp2PtH8R69uhL1fs_joP6cE8cHynVxLrt3WU0ut2q5tEzqEWsG7NjT_tfDKxIPf-bupBF4Mb1ZSVPBDk0qTvl6CCLP5BXLsvjjXEj9r1ZVu7VBAmVhLu_SPe0LEp9xS6jOs_j8qVjT_R6UGA]--></g></svg>