<?xml version="1.0" encoding="us-ascii" standalone="no"?><svg xmlns="http://www.w3.org/2000/svg" xmlns:xlink="http://www.w3.org/1999/xlink" contentStyleType="text/css" height="1276px" preserveAspectRatio="none" style="width:1349px;height:1276px;background:#FFFFFF;" version="1.1" viewBox="0 0 1349 1276" width="1349px" zoomAndPan="magnify"><defs/><g><text fill="#000000" font-family="sans-serif" font-size="14" font-weight="bold" lengthAdjust="spacing" textLength="302" x="525.5" y="29.5332">Single Command Execution - Success Case</text><rect fill="#ADD8E6" height="69.7031" style="stroke:#ADD8E6;stroke-width:1.0;" width="321" x="910" y="374.0313"/><rect fill="#FFC0CB" height="64.1875" style="stroke:#FFC0CB;stroke-width:1.0;" width="321" x="910" y="443.7344"/><rect fill="#ADD8E6" height="69.7031" style="stroke:#ADD8E6;stroke-width:1.0;" width="449" x="64" y="794.7344"/><rect fill="#FFC0CB" height="64.1875" style="stroke:#FFC0CB;stroke-width:1.0;" width="449" x="64" y="864.4375"/><rect fill="#ADD8E6" height="69.7031" style="stroke:#ADD8E6;stroke-width:1.0;" width="1167" x="64" y="1076.6797"/><rect fill="#FFC0CB" height="51.1875" style="stroke:#FFC0CB;stroke-width:1.0;" width="1167" x="64" y="1146.3828"/><line style="stroke:#181818;stroke-width:1.0;" x1="130.25" x2="130.25" y1="158.4219" y2="965.4766"/><polygon fill="#181818" points="126.25,168.4219,130.25,158.4219,134.25,168.4219,130.25,164.4219" style="stroke:#181818;stroke-width:1.0;"/><polygon fill="#181818" points="126.25,955.4766,130.25,965.4766,134.25,955.4766,130.25,959.4766" style="stroke:#181818;stroke-width:1.0;"/><text fill="#000000" font-family="sans-serif" font-size="13" lengthAdjust="spacing" textLength="78" x="134.25" y="567.2686">Client Ticking</text><line style="stroke:#181818;stroke-width:1.0;" x1="964.75" x2="964.75" y1="548.7734" y2="1125.3828"/><polygon fill="#181818" points="960.75,558.7734,964.75,548.7734,968.75,558.7734,964.75,554.7734" style="stroke:#181818;stroke-width:1.0;"/><polygon fill="#181818" points="960.75,1115.3828,964.75,1125.3828,968.75,1115.3828,964.75,1119.3828" style="stroke:#181818;stroke-width:1.0;"/><text fill="#000000" font-family="sans-serif" font-size="13" lengthAdjust="spacing" textLength="81" x="968.75" y="842.3975">Server Ticking</text><line style="stroke:#181818;stroke-width:0.5;stroke-dasharray:5.0,5.0;" x1="80" x2="80" y1="93.2188" y2="1221.5703"/><line style="stroke:#181818;stroke-width:0.5;stroke-dasharray:5.0,5.0;" x1="369" x2="369" y1="93.2188" y2="1221.5703"/><line style="stroke:#181818;stroke-width:0.5;stroke-dasharray:5.0,5.0;" x1="581" x2="581" y1="93.2188" y2="1221.5703"/><line style="stroke:#181818;stroke-width:0.5;stroke-dasharray:5.0,5.0;" x1="732" x2="732" y1="93.2188" y2="1221.5703"/><line style="stroke:#181818;stroke-width:0.5;stroke-dasharray:5.0,5.0;" x1="926" x2="926" y1="93.2188" y2="1221.5703"/><line style="stroke:#181818;stroke-width:0.5;stroke-dasharray:5.0,5.0;" x1="1215" x2="1215" y1="93.2188" y2="1221.5703"/><text fill="#000000" font-family="sans-serif" font-size="14" lengthAdjust="spacing" textLength="144" x="5" y="90.1426">Client Command Layer</text><ellipse cx="80" cy="59.6094" fill="#E2E2F0" rx="12" ry="12" style="stroke:#181818;stroke-width:0.5;"/><line style="stroke:#181818;stroke-width:0.5;" x1="68" x2="92" y1="73.6094" y2="73.6094"/><text fill="#000000" font-family="sans-serif" font-size="14" lengthAdjust="spacing" textLength="168" x="282" y="90.1426">Client Data Transfer Layer</text><ellipse cx="369" cy="59.6094" fill="#E2E2F0" rx="12" ry="12" style="stroke:#181818;stroke-width:0.5;"/><line style="stroke:#181818;stroke-width:0.5;" x1="357" x2="381" y1="73.6094" y2="73.6094"/><text fill="#000000" font-family="sans-serif" font-size="14" lengthAdjust="spacing" textLength="132" x="512" y="90.1426">Client Physical Layer</text><ellipse cx="581" cy="59.6094" fill="#E2E2F0" rx="12" ry="12" style="stroke:#181818;stroke-width:0.5;"/><line style="stroke:#181818;stroke-width:0.5;" x1="569" x2="593" y1="73.6094" y2="73.6094"/><text fill="#000000" font-family="sans-serif" font-size="14" lengthAdjust="spacing" textLength="138" x="660" y="90.1426">Server Physical Layer</text><ellipse cx="732" cy="59.6094" fill="#E2E2F0" rx="12" ry="12" style="stroke:#181818;stroke-width:0.5;"/><line style="stroke:#181818;stroke-width:0.5;" x1="720" x2="744" y1="73.6094" y2="73.6094"/><text fill="#000000" font-family="sans-serif" font-size="14" lengthAdjust="spacing" textLength="174" x="836" y="90.1426">Server Data Transfer Layer</text><ellipse cx="926" cy="59.6094" fill="#E2E2F0" rx="12" ry="12" style="stroke:#181818;stroke-width:0.5;"/><line style="stroke:#181818;stroke-width:0.5;" x1="914" x2="938" y1="73.6094" y2="73.6094"/><text fill="#000000" font-family="sans-serif" font-size="14" lengthAdjust="spacing" textLength="150" x="1137" y="90.1426">Server Command Layer</text><ellipse cx="1215" cy="59.6094" fill="#E2E2F0" rx="12" ry="12" style="stroke:#181818;stroke-width:0.5;"/><line style="stroke:#181818;stroke-width:0.5;" x1="1203" x2="1227" y1="73.6094" y2="73.6094"/><text fill="#000000" font-family="sans-serif" font-size="14" lengthAdjust="spacing" textLength="144" x="5" y="1268.1035">Client Command Layer</text><ellipse cx="80" cy="1237.5703" fill="#E2E2F0" rx="12" ry="12" style="stroke:#181818;stroke-width:0.5;"/><line style="stroke:#181818;stroke-width:0.5;" x1="68" x2="92" y1="1251.5703" y2="1251.5703"/><text fill="#000000" font-family="sans-serif" font-size="14" lengthAdjust="spacing" textLength="168" x="282" y="1268.1035">Client Data Transfer Layer</text><ellipse cx="369" cy="1237.5703" fill="#E2E2F0" rx="12" ry="12" style="stroke:#181818;stroke-width:0.5;"/><line style="stroke:#181818;stroke-width:0.5;" x1="357" x2="381" y1="1251.5703" y2="1251.5703"/><text fill="#000000" font-family="sans-serif" font-size="14" lengthAdjust="spacing" textLength="132" x="512" y="1268.1035">Client Physical Layer</text><ellipse cx="581" cy="1237.5703" fill="#E2E2F0" rx="12" ry="12" style="stroke:#181818;stroke-width:0.5;"/><line style="stroke:#181818;stroke-width:0.5;" x1="569" x2="593" y1="1251.5703" y2="1251.5703"/><text fill="#000000" font-family="sans-serif" font-size="14" lengthAdjust="spacing" textLength="138" x="660" y="1268.1035">Server Physical Layer</text><ellipse cx="732" cy="1237.5703" fill="#E2E2F0" rx="12" ry="12" style="stroke:#181818;stroke-width:0.5;"/><line style="stroke:#181818;stroke-width:0.5;" x1="720" x2="744" y1="1251.5703" y2="1251.5703"/><text fill="#000000" font-family="sans-serif" font-size="14" lengthAdjust="spacing" textLength="174" x="836" y="1268.1035">Server Data Transfer Layer</text><ellipse cx="926" cy="1237.5703" fill="#E2E2F0" rx="12" ry="12" style="stroke:#181818;stroke-width:0.5;"/><line style="stroke:#181818;stroke-width:0.5;" x1="914" x2="938" y1="1251.5703" y2="1251.5703"/><text fill="#000000" font-family="sans-serif" font-size="14" lengthAdjust="spacing" textLength="150" x="1137" y="1268.1035">Server Command Layer</text><ellipse cx="1215" cy="1237.5703" fill="#E2E2F0" rx="12" ry="12" style="stroke:#181818;stroke-width:0.5;"/><line style="stroke:#181818;stroke-width:0.5;" x1="1203" x2="1227" y1="1251.5703" y2="1251.5703"/><polygon fill="#181818" points="357,119.5703,367,123.5703,357,127.5703,361,123.5703" style="stroke:#181818;stroke-width:1.0;"/><line style="stroke:#181818;stroke-width:1.0;" x1="80" x2="363" y1="123.5703" y2="123.5703"/><text fill="#000000" font-family="sans-serif" font-size="13" lengthAdjust="spacing" textLength="241" x="87" y="118.7139">Send Command + Command ID + Priority</text><line style="stroke:#181818;stroke-width:1.0;" x1="80" x2="122" y1="153.9219" y2="153.9219"/><line style="stroke:#181818;stroke-width:1.0;" x1="122" x2="122" y1="153.9219" y2="166.9219"/><line style="stroke:#181818;stroke-width:1.0;" x1="81" x2="122" y1="166.9219" y2="166.9219"/><polygon fill="#181818" points="91,162.9219,81,166.9219,91,170.9219,87,166.9219" style="stroke:#181818;stroke-width:1.0;"/><text fill="#000000" font-family="sans-serif" font-size="13" lengthAdjust="spacing" textLength="114" x="87" y="149.0654">Start Timeout Timer</text><line style="stroke:#181818;stroke-width:1.0;" x1="369" x2="411" y1="197.2734" y2="197.2734"/><line style="stroke:#181818;stroke-width:1.0;" x1="411" x2="411" y1="197.2734" y2="210.2734"/><line style="stroke:#181818;stroke-width:1.0;" x1="370" x2="411" y1="210.2734" y2="210.2734"/><polygon fill="#181818" points="380,206.2734,370,210.2734,380,214.2734,376,210.2734" style="stroke:#181818;stroke-width:1.0;"/><text fill="#000000" font-family="sans-serif" font-size="13" lengthAdjust="spacing" textLength="198" x="376" y="192.417">Encapsulate Message Using SLIP</text><polygon fill="#181818" points="569,236.625,579,240.625,569,244.625,573,240.625" style="stroke:#181818;stroke-width:1.0;"/><line style="stroke:#181818;stroke-width:1.0;" x1="369" x2="575" y1="240.625" y2="240.625"/><text fill="#000000" font-family="sans-serif" font-size="13" lengthAdjust="spacing" textLength="170" x="376" y="235.7686">Send Encapsulated Message</text><polygon fill="#181818" points="720,266.9766,730,270.9766,720,274.9766,724,270.9766" style="stroke:#181818;stroke-width:1.0;"/><line style="stroke:#181818;stroke-width:1.0;" x1="581" x2="726" y1="270.9766" y2="270.9766"/><text fill="#000000" font-family="sans-serif" font-size="13" lengthAdjust="spacing" textLength="61" x="588" y="266.1201">Send Byte</text><polygon fill="#181818" points="720,297.3281,730,301.3281,720,305.3281,724,301.3281" style="stroke:#181818;stroke-width:1.0;"/><line style="stroke:#181818;stroke-width:1.0;" x1="581" x2="726" y1="301.3281" y2="301.3281"/><text fill="#000000" font-family="sans-serif" font-size="13" lengthAdjust="spacing" textLength="61" x="588" y="296.4717">Send Byte</text><polygon fill="#181818" points="720,327.6797,730,331.6797,720,335.6797,724,331.6797" style="stroke:#181818;stroke-width:1.0;"/><line style="stroke:#181818;stroke-width:1.0;" x1="581" x2="726" y1="331.6797" y2="331.6797"/><text fill="#000000" font-family="sans-serif" font-size="13" lengthAdjust="spacing" textLength="36" x="588" y="326.8232">.... ....</text><polygon fill="#181818" points="914,358.0313,924,362.0313,914,366.0313,918,362.0313" style="stroke:#181818;stroke-width:1.0;"/><line style="stroke:#181818;stroke-width:1.0;" x1="732" x2="920" y1="362.0313" y2="362.0313"/><text fill="#000000" font-family="sans-serif" font-size="13" lengthAdjust="spacing" textLength="146" x="739" y="357.1748">Notify on Receiving Octet</text><path d="M910,374.0313 L971,374.0313 L971,382.3828 L961,392.3828 L910,392.3828 L910,374.0313 " fill="#FFD700" style="stroke:#000000;stroke-width:1.5;"/><rect fill="none" height="133.8906" style="stroke:#000000;stroke-width:1.5;" width="321" x="910" y="374.0313"/><text fill="#000000" font-family="sans-serif" font-size="13" font-weight="bold" lengthAdjust="spacing" textLength="16" x="925" y="388.5264">alt</text><text fill="#000000" font-family="sans-serif" font-size="11" font-weight="bold" lengthAdjust="spacing" textLength="106" x="986" y="387.4502">[end of slip packet]</text><line style="stroke:#000000;stroke-width:1.0;stroke-dasharray:2.0,2.0;" x1="910" x2="1231" y1="443.7344" y2="443.7344"/><text fill="#000000" font-family="sans-serif" font-size="11" font-weight="bold" lengthAdjust="spacing" textLength="50" x="915" y="457.1533">[not end]</text><polygon fill="#181818" points="1203,420.7344,1213,424.7344,1203,428.7344,1207,424.7344" style="stroke:#181818;stroke-width:1.0;"/><line style="stroke:#181818;stroke-width:1.0;" x1="926" x2="1209" y1="424.7344" y2="424.7344"/><text fill="#000000" font-family="sans-serif" font-size="13" lengthAdjust="spacing" textLength="265" x="933" y="419.8779">Unwrap Message and send to command layer</text><line style="stroke:#181818;stroke-width:1.0;" x1="926" x2="968" y1="486.9219" y2="486.9219"/><line style="stroke:#181818;stroke-width:1.0;" x1="968" x2="968" y1="486.9219" y2="499.9219"/><line style="stroke:#181818;stroke-width:1.0;" x1="927" x2="968" y1="499.9219" y2="499.9219"/><polygon fill="#181818" points="937,495.9219,927,499.9219,937,503.9219,933,499.9219" style="stroke:#181818;stroke-width:1.0;"/><text fill="#000000" font-family="sans-serif" font-size="13" lengthAdjust="spacing" textLength="114" x="933" y="482.0654">wait for other octets</text><line style="stroke:#181818;stroke-width:1.0;" x1="1215" x2="1257" y1="544.2734" y2="544.2734"/><line style="stroke:#181818;stroke-width:1.0;" x1="1257" x2="1257" y1="544.2734" y2="557.2734"/><line style="stroke:#181818;stroke-width:1.0;" x1="1216" x2="1257" y1="557.2734" y2="557.2734"/><polygon fill="#181818" points="1226,553.2734,1216,557.2734,1226,561.2734,1222,557.2734" style="stroke:#181818;stroke-width:1.0;"/><text fill="#000000" font-family="sans-serif" font-size="13" lengthAdjust="spacing" textLength="120" x="1222" y="539.417">Execute the process</text><polygon fill="#181818" points="937,583.625,927,587.625,937,591.625,933,587.625" style="stroke:#181818;stroke-width:1.0;"/><line style="stroke:#181818;stroke-width:1.0;" x1="931" x2="1214" y1="587.625" y2="587.625"/><text fill="#000000" font-family="sans-serif" font-size="13" lengthAdjust="spacing" textLength="85" x="943" y="582.7686">send response</text><line style="stroke:#181818;stroke-width:1.0;" x1="926" x2="968" y1="617.9766" y2="617.9766"/><line style="stroke:#181818;stroke-width:1.0;" x1="968" x2="968" y1="617.9766" y2="630.9766"/><line style="stroke:#181818;stroke-width:1.0;" x1="927" x2="968" y1="630.9766" y2="630.9766"/><polygon fill="#181818" points="937,626.9766,927,630.9766,937,634.9766,933,630.9766" style="stroke:#181818;stroke-width:1.0;"/><text fill="#000000" font-family="sans-serif" font-size="13" lengthAdjust="spacing" textLength="198" x="933" y="613.1201">Encapsulate Message Using SLIP</text><polygon fill="#181818" points="743,657.3281,733,661.3281,743,665.3281,739,661.3281" style="stroke:#181818;stroke-width:1.0;"/><line style="stroke:#181818;stroke-width:1.0;" x1="737" x2="925" y1="661.3281" y2="661.3281"/><text fill="#000000" font-family="sans-serif" font-size="13" lengthAdjust="spacing" textLength="170" x="749" y="656.4717">Send Encapsulated Message</text><polygon fill="#181818" points="592,687.6797,582,691.6797,592,695.6797,588,691.6797" style="stroke:#181818;stroke-width:1.0;"/><line style="stroke:#181818;stroke-width:1.0;" x1="586" x2="731" y1="691.6797" y2="691.6797"/><text fill="#000000" font-family="sans-serif" font-size="13" lengthAdjust="spacing" textLength="61" x="598" y="686.8232">Send Byte</text><polygon fill="#181818" points="592,718.0313,582,722.0313,592,726.0313,588,722.0313" style="stroke:#181818;stroke-width:1.0;"/><line style="stroke:#181818;stroke-width:1.0;" x1="586" x2="731" y1="722.0313" y2="722.0313"/><text fill="#000000" font-family="sans-serif" font-size="13" lengthAdjust="spacing" textLength="61" x="598" y="717.1748">Send Byte</text><polygon fill="#181818" points="592,748.3828,582,752.3828,592,756.3828,588,752.3828" style="stroke:#181818;stroke-width:1.0;"/><line style="stroke:#181818;stroke-width:1.0;" x1="586" x2="731" y1="752.3828" y2="752.3828"/><text fill="#000000" font-family="sans-serif" font-size="13" lengthAdjust="spacing" textLength="36" x="598" y="747.5264">.... ....</text><polygon fill="#181818" points="380,778.7344,370,782.7344,380,786.7344,376,782.7344" style="stroke:#181818;stroke-width:1.0;"/><line style="stroke:#181818;stroke-width:1.0;" x1="374" x2="580" y1="782.7344" y2="782.7344"/><text fill="#000000" font-family="sans-serif" font-size="13" lengthAdjust="spacing" textLength="146" x="386" y="777.8779">Notify on Receiving Octet</text><path d="M64,794.7344 L125,794.7344 L125,803.0859 L115,813.0859 L64,813.0859 L64,794.7344 " fill="#FFD700" style="stroke:#000000;stroke-width:1.5;"/><rect fill="none" height="133.8906" style="stroke:#000000;stroke-width:1.5;" width="449" x="64" y="794.7344"/><text fill="#000000" font-family="sans-serif" font-size="13" font-weight="bold" lengthAdjust="spacing" textLength="16" x="79" y="809.2295">alt</text><text fill="#000000" font-family="sans-serif" font-size="11" font-weight="bold" lengthAdjust="spacing" textLength="106" x="140" y="808.1533">[end of slip packet]</text><line style="stroke:#000000;stroke-width:1.0;stroke-dasharray:2.0,2.0;" x1="64" x2="513" y1="864.4375" y2="864.4375"/><text fill="#000000" font-family="sans-serif" font-size="11" font-weight="bold" lengthAdjust="spacing" textLength="50" x="69" y="877.8564">[not end]</text><polygon fill="#181818" points="91,841.4375,81,845.4375,91,849.4375,87,845.4375" style="stroke:#181818;stroke-width:1.0;"/><line style="stroke:#181818;stroke-width:1.0;" x1="85" x2="368" y1="845.4375" y2="845.4375"/><text fill="#000000" font-family="sans-serif" font-size="13" lengthAdjust="spacing" textLength="265" x="97" y="840.5811">Unwrap Message and send to command layer</text><line style="stroke:#181818;stroke-width:1.0;" x1="369" x2="411" y1="907.625" y2="907.625"/><line style="stroke:#181818;stroke-width:1.0;" x1="411" x2="411" y1="907.625" y2="920.625"/><line style="stroke:#181818;stroke-width:1.0;" x1="370" x2="411" y1="920.625" y2="920.625"/><polygon fill="#181818" points="380,916.625,370,920.625,380,924.625,376,920.625" style="stroke:#181818;stroke-width:1.0;"/><text fill="#000000" font-family="sans-serif" font-size="13" lengthAdjust="spacing" textLength="114" x="376" y="902.7686">wait for other octets</text><line style="stroke:#181818;stroke-width:1.0;" x1="80" x2="122" y1="964.9766" y2="964.9766"/><line style="stroke:#181818;stroke-width:1.0;" x1="122" x2="122" y1="964.9766" y2="977.9766"/><line style="stroke:#181818;stroke-width:1.0;" x1="81" x2="122" y1="977.9766" y2="977.9766"/><polygon fill="#181818" points="91,973.9766,81,977.9766,91,981.9766,87,977.9766" style="stroke:#181818;stroke-width:1.0;"/><text fill="#000000" font-family="sans-serif" font-size="13" lengthAdjust="spacing" textLength="59" x="87" y="960.1201">Timer End</text><line style="stroke:#181818;stroke-width:1.0;" x1="80" x2="122" y1="1008.3281" y2="1008.3281"/><line style="stroke:#181818;stroke-width:1.0;" x1="122" x2="122" y1="1008.3281" y2="1021.3281"/><line style="stroke:#181818;stroke-width:1.0;" x1="81" x2="122" y1="1021.3281" y2="1021.3281"/><polygon fill="#181818" points="91,1017.3281,81,1021.3281,91,1025.3281,87,1021.3281" style="stroke:#181818;stroke-width:1.0;"/><text fill="#000000" font-family="sans-serif" font-size="13" lengthAdjust="spacing" textLength="63" x="87" y="1003.4717">Stop Timer</text><line style="stroke:#181818;stroke-width:1.0;" x1="80" x2="122" y1="1051.6797" y2="1051.6797"/><line style="stroke:#181818;stroke-width:1.0;" x1="122" x2="122" y1="1051.6797" y2="1064.6797"/><line style="stroke:#181818;stroke-width:1.0;" x1="81" x2="122" y1="1064.6797" y2="1064.6797"/><polygon fill="#181818" points="91,1060.6797,81,1064.6797,91,1068.6797,87,1064.6797" style="stroke:#181818;stroke-width:1.0;"/><text fill="#000000" font-family="sans-serif" font-size="13" lengthAdjust="spacing" textLength="141" x="87" y="1046.8232">Parse Response to DTO</text><path d="M64,1076.6797 L125,1076.6797 L125,1085.0313 L115,1095.0313 L64,1095.0313 L64,1076.6797 " fill="#FFD700" style="stroke:#000000;stroke-width:1.5;"/><rect fill="none" height="120.8906" style="stroke:#000000;stroke-width:1.5;" width="1167" x="64" y="1076.6797"/><text fill="#000000" font-family="sans-serif" font-size="13" font-weight="bold" lengthAdjust="spacing" textLength="16" x="79" y="1091.1748">alt</text><text fill="#000000" font-family="sans-serif" font-size="11" font-weight="bold" lengthAdjust="spacing" textLength="114" x="140" y="1090.0986">[Successful Parsing]</text><line style="stroke:#000000;stroke-width:1.0;stroke-dasharray:2.0,2.0;" x1="64" x2="1231" y1="1146.3828" y2="1146.3828"/><text fill="#000000" font-family="sans-serif" font-size="11" font-weight="bold" lengthAdjust="spacing" textLength="45" x="69" y="1159.8018">[Failure]</text><polygon fill="#181818" points="1203,1123.3828,1213,1127.3828,1203,1131.3828,1207,1127.3828" style="stroke:#181818;stroke-width:1.0;"/><line style="stroke:#181818;stroke-width:1.0;stroke-dasharray:2.0,2.0;" x1="80" x2="1209" y1="1127.3828" y2="1127.3828"/><text fill="#000000" font-family="sans-serif" font-size="13" lengthAdjust="spacing" textLength="152" x="87" y="1122.5264">Send ACK + Command ID</text><polygon fill="#181818" points="1203,1185.5703,1213,1189.5703,1203,1193.5703,1207,1189.5703" style="stroke:#181818;stroke-width:1.0;"/><line style="stroke:#181818;stroke-width:1.0;stroke-dasharray:2.0,2.0;" x1="80" x2="1209" y1="1189.5703" y2="1189.5703"/><text fill="#000000" font-family="sans-serif" font-size="13" lengthAdjust="spacing" textLength="179" x="87" y="1184.7139">Send RESEND + Command ID</text><line style="stroke:#181818;stroke-width:1.0;" x1="130.25" x2="130.25" y1="158.4219" y2="965.4766"/><polygon fill="#181818" points="126.25,168.4219,130.25,158.4219,134.25,168.4219,130.25,164.4219" style="stroke:#181818;stroke-width:1.0;"/><polygon fill="#181818" points="126.25,955.4766,130.25,965.4766,134.25,955.4766,130.25,959.4766" style="stroke:#181818;stroke-width:1.0;"/><text fill="#000000" font-family="sans-serif" font-size="13" lengthAdjust="spacing" textLength="78" x="134.25" y="567.2686">Client Ticking</text><line style="stroke:#181818;stroke-width:1.0;" x1="964.75" x2="964.75" y1="548.7734" y2="1125.3828"/><polygon fill="#181818" points="960.75,558.7734,964.75,548.7734,968.75,558.7734,964.75,554.7734" style="stroke:#181818;stroke-width:1.0;"/><polygon fill="#181818" points="960.75,1115.3828,964.75,1125.3828,968.75,1115.3828,964.75,1119.3828" style="stroke:#181818;stroke-width:1.0;"/><text fill="#000000" font-family="sans-serif" font-size="13" lengthAdjust="spacing" textLength="81" x="968.75" y="842.3975">Server Ticking</text><!--SRC=[hLN1Rjim3BthAxZaE7I778jXm9faGx6i3UBqN0WoamXHB4EYstb3_dsKwYIowpI7rWVR0juZ7yadYJGPX46cYpL_ntQtaqKEqp-eAjAsW2l8AgNGUnXBZmFngNHolPD0QFy2kGg5m88qrQ2Cvhz7jSj1UXYCu_8OSIPhT8CEDYUJOYUI92oTBFmANJ-ZtDGfOxwflLRI7C17CHxT4xeZF8lBL_0s-A2c0R-bfc4SQcqOdLg5I5fozIqf-XeoPDm1__duTplXnTnfwpYB-ET9EdealKEtXzvWlE9W0GPBXjdgvUjEoKDLdUJJGidILqOImcyUhLmZF7Xs06Ipsta_aJlPg4xO-O4kal4mvzJzXdDJqtinN_Y9Bo6IuPv0iR8xItfL0_jsWGhrKwZfNX6I4DBGyASrEGndUhsX6rCXXBHs1Txe4agfjem3VX8_dEB7JZyKpqwMnwQ5aVaGX2oePeGc35-WyGZ3kIwsK5WAYSv7ZigVfIPOMGUMDcmb6qHx487Oyi5edvgl8-zbso9m22YT3TjMzA9ZogZSeIzjuL6SbtR1Bht42tRfZF2Lnw8NteT9_D8sLReJFiOllHlcG_noVW-_wHT-NpuruZd1uyd5MoUBBPi3vJneBXsBNpH62hLDblVz3MpkabLb8elR7Siy2Hwr5NVy7UV-VVohTMAclViXjQaSfhqx6sSnpQPtaqwexdRRmrVc9WszXkRgMMgr3VexcxCD7-r3idWvDFZ_]--></g></svg>