<?xml version="1.0" encoding="us-ascii" standalone="no"?><svg xmlns="http://www.w3.org/2000/svg" xmlns:xlink="http://www.w3.org/1999/xlink" contentStyleType="text/css" height="337px" preserveAspectRatio="none" style="width:1985px;height:337px;background:#FFFFFF;" version="1.1" viewBox="0 0 1985 337" width="1985px" zoomAndPan="magnify"><defs/><g><text fill="#000000" font-family="sans-serif" font-size="14" font-weight="bold" lengthAdjust="spacing" textLength="149" x="911" y="24.5332">Server State Diagram</text><g id="idle"><rect fill="#F1F1F1" height="50" rx="12.5" ry="12.5" style="stroke:#181818;stroke-width:0.5;" width="50" x="87" y="193.9658"/><line style="stroke:#181818;stroke-width:0.5;" x1="87" x2="137" y1="221.5752" y2="221.5752"/><text fill="#000000" font-family="sans-serif" font-size="14" lengthAdjust="spacing" textLength="22" x="101" y="213.499">Idle</text></g><g id="receiveCommand"><rect fill="#F1F1F1" height="50" rx="12.5" ry="12.5" style="stroke:#181818;stroke-width:0.5;" width="139" x="352" y="193.9658"/><line style="stroke:#181818;stroke-width:0.5;" x1="352" x2="491" y1="221.5752" y2="221.5752"/><text fill="#000000" font-family="sans-serif" font-size="14" lengthAdjust="spacing" textLength="119" x="362" y="213.499">Receive Command</text></g><g id="processCommand"><rect fill="#F1F1F1" height="50" rx="12.5" ry="12.5" style="stroke:#181818;stroke-width:0.5;" width="139" x="642" y="193.9658"/><line style="stroke:#181818;stroke-width:0.5;" x1="642" x2="781" y1="221.5752" y2="221.5752"/><text fill="#000000" font-family="sans-serif" font-size="14" lengthAdjust="spacing" textLength="119" x="652" y="213.499">Process Command</text></g><g id="sendResponse"><rect fill="#F1F1F1" height="50" rx="12.5" ry="12.5" style="stroke:#181818;stroke-width:0.5;" width="121" x="968" y="115.9658"/><line style="stroke:#181818;stroke-width:0.5;" x1="968" x2="1089" y1="143.5752" y2="143.5752"/><text fill="#000000" font-family="sans-serif" font-size="14" lengthAdjust="spacing" textLength="101" x="978" y="135.499">Send Response</text></g><g id="badCommand"><rect fill="#F1F1F1" height="50" rx="12.5" ry="12.5" style="stroke:#181818;stroke-width:0.5;" width="113" x="972" y="281.9658"/><line style="stroke:#181818;stroke-width:0.5;" x1="972" x2="1085" y1="309.5752" y2="309.5752"/><text fill="#000000" font-family="sans-serif" font-size="14" lengthAdjust="spacing" textLength="93" x="982" y="301.499">Bad Command</text></g><g id="timeout"><rect fill="#F1F1F1" height="50" rx="12.5" ry="12.5" style="stroke:#181818;stroke-width:0.5;" width="71" x="1907" y="76.9658"/><line style="stroke:#181818;stroke-width:0.5;" x1="1907" x2="1978" y1="104.5752" y2="104.5752"/><text fill="#000000" font-family="sans-serif" font-size="14" lengthAdjust="spacing" textLength="51" x="1917" y="96.499">Timeout</text></g><g id="commandReceived"><rect fill="#F1F1F1" height="50" rx="12.5" ry="12.5" style="stroke:#181818;stroke-width:0.5;" width="155" x="1319" y="115.9658"/><line style="stroke:#181818;stroke-width:0.5;" x1="1319" x2="1474" y1="143.5752" y2="143.5752"/><text fill="#000000" font-family="sans-serif" font-size="14" lengthAdjust="spacing" textLength="135" x="1329" y="135.499">Command Processed</text></g><g id="waitAck"><rect fill="#F1F1F1" height="50" rx="12.5" ry="12.5" style="stroke:#181818;stroke-width:0.5;" width="156" x="1612" y="115.9658"/><line style="stroke:#181818;stroke-width:0.5;" x1="1612" x2="1768" y1="143.5752" y2="143.5752"/><text fill="#000000" font-family="sans-serif" font-size="14" lengthAdjust="spacing" textLength="136" x="1622" y="135.499">Wait for Acknowledge</text></g><ellipse cx="16" cy="218.9658" fill="#222222" rx="10" ry="10" style="stroke:#222222;stroke-width:1.0;"/><!--link *start* to idle--><g id="link_*start*_idle"><path d="M26.01,218.9658 C39.89,218.9658 60.97,218.9658 80.84,218.9658 " fill="none" id="*start*-to-idle" style="stroke:#181818;stroke-width:1.0;"/><polygon fill="#181818" points="86.84,218.9658,77.84,214.9658,81.84,218.9658,77.84,222.9658,86.84,218.9658" style="stroke:#181818;stroke-width:1.0;"/></g><!--link idle to receiveCommand--><g id="link_idle_receiveCommand"><path d="M137.13,218.9658 C182.86,218.9658 277.67,218.9658 345.86,218.9658 " fill="none" id="idle-to-receiveCommand" style="stroke:#181818;stroke-width:1.0;"/><polygon fill="#181818" points="351.86,218.9658,342.86,214.9658,346.86,218.9658,342.86,222.9658,351.86,218.9658" style="stroke:#181818;stroke-width:1.0;"/><text fill="#000000" font-family="sans-serif" font-size="13" lengthAdjust="spacing" textLength="108" x="190.5" y="215.4609">Wait for Command</text></g><!--link receiveCommand to idle--><g id="link_receiveCommand_idle"><path d="M351.79,239.5058 C341.88,241.7658 331.73,243.7058 322,244.9658 C253.68,253.8258 234.16,260.2958 167,244.9658 C156.75,242.6258 151.5279,240.8256 142.4879,236.1856 " fill="none" id="receiveCommand-to-idle" style="stroke:#181818;stroke-width:1.0;"/><polygon fill="#181818" points="137.15,233.4458,143.3303,241.1142,141.5983,235.729,146.9834,233.9969,137.15,233.4458" style="stroke:#181818;stroke-width:1.0;"/><text fill="#000000" font-family="sans-serif" font-size="13" lengthAdjust="spacing" textLength="153" x="168" y="241.4609">No Commands to Process</text></g><!--link receiveCommand to processCommand--><g id="link_receiveCommand_processCommand"><path d="M491.12,218.9658 C536.7,218.9658 590.33,218.9658 635.91,218.9658 " fill="none" id="receiveCommand-to-processCommand" style="stroke:#181818;stroke-width:1.0;"/><polygon fill="#181818" points="641.91,218.9658,632.91,214.9658,636.91,218.9658,632.91,222.9658,641.91,218.9658" style="stroke:#181818;stroke-width:1.0;"/><text fill="#000000" font-family="sans-serif" font-size="13" lengthAdjust="spacing" textLength="89" x="522" y="215.4609">Done Receiving</text></g><!--link receiveCommand to receiveCommand--><g id="link_receiveCommand_receiveCommand"><path d="M397.14,193.6858 C389.75,176.1958 397.88,158.9658 421.5,158.9658 C445.12,158.9658 455.5853,170.6689 448.1953,188.1589 " fill="none" id="receiveCommand-to-receiveCommand" style="stroke:#181818;stroke-width:1.0;"/><polygon fill="#181818" points="445.86,193.6858,453.0475,186.9523,447.8061,189.0801,445.6783,183.8386,445.86,193.6858" style="stroke:#181818;stroke-width:1.0;"/><text fill="#000000" font-family="sans-serif" font-size="13" lengthAdjust="spacing" textLength="164" x="339.5" y="150.4609">Receive Multiple Commands</text></g><!--link processCommand to sendResponse--><g id="link_processCommand_sendResponse"><path d="M781.07,200.6558 C791.1,198.0358 801.31,195.4058 811,192.9658 C863.85,179.6458 918.3204,166.6039 961.8404,156.3339 " fill="none" id="processCommand-to-sendResponse" style="stroke:#181818;stroke-width:1.0;"/><polygon fill="#181818" points="967.68,154.9558,958.0019,153.1298,962.8137,156.1042,959.8393,160.916,967.68,154.9558" style="stroke:#181818;stroke-width:1.0;"/><text fill="#000000" font-family="sans-serif" font-size="13" lengthAdjust="spacing" textLength="125" x="812" y="158.4609">Command Processed</text></g><!--link processCommand to badCommand--><g id="link_processCommand_badCommand"><path d="M762.79,243.9858 C778.01,250.8558 794.95,257.8158 811,262.9658 C864.51,280.1258 921.7449,291.1105 965.9949,298.1705 " fill="none" id="processCommand-to-badCommand" style="stroke:#181818;stroke-width:1.0;"/><polygon fill="#181818" points="971.92,299.1158,963.6626,293.7478,966.9824,298.328,962.4022,301.6479,971.92,299.1158" style="stroke:#181818;stroke-width:1.0;"/><text fill="#000000" font-family="sans-serif" font-size="13" lengthAdjust="spacing" textLength="105" x="822" y="259.4609">Error in Command</text></g><!--link badCommand to receiveCommand--><g id="link_badCommand_receiveCommand"><path d="M971.79,306.9858 C896.39,306.1258 757.95,301.3958 642,279.9658 C590.86,270.5158 540.0756,256.4374 497.1956,243.2674 " fill="none" id="badCommand-to-receiveCommand" style="stroke:#181818;stroke-width:1.0;"/><polygon fill="#181818" points="491.46,241.5058,498.889,247.9719,496.2396,242.9738,501.2378,240.3245,491.46,241.5058" style="stroke:#181818;stroke-width:1.0;"/><text fill="#000000" font-family="sans-serif" font-size="13" lengthAdjust="spacing" textLength="120" x="651.5" y="276.4609">Send Bad Command</text></g><!--link sendResponse to commandReceived--><g id="link_sendResponse_commandReceived"><path d="M1089.12,140.9658 C1151.71,140.9658 1244.34,140.9658 1312.72,140.9658 " fill="none" id="sendResponse-to-commandReceived" style="stroke:#181818;stroke-width:1.0;"/><polygon fill="#181818" points="1318.72,140.9658,1309.72,136.9658,1313.72,140.9658,1309.72,144.9658,1318.72,140.9658" style="stroke:#181818;stroke-width:1.0;"/><text fill="#000000" font-family="sans-serif" font-size="13" lengthAdjust="spacing" textLength="168" x="1120" y="137.4609">Command Sent Successfully</text></g><!--link commandReceived to waitAck--><g id="link_commandReceived_waitAck"><path d="M1474.09,140.9658 C1516.6,140.9658 1563.32,140.9658 1605.91,140.9658 " fill="none" id="commandReceived-to-waitAck" style="stroke:#181818;stroke-width:1.0;"/><polygon fill="#181818" points="1611.91,140.9658,1602.91,136.9658,1606.91,140.9658,1602.91,144.9658,1611.91,140.9658" style="stroke:#181818;stroke-width:1.0;"/><text fill="#000000" font-family="sans-serif" font-size="13" lengthAdjust="spacing" textLength="76" x="1505" y="137.4609">Wait for ACK</text></g><!--link waitAck to processCommand--><g id="link_waitAck_processCommand"><path d="M1611.84,159.3458 C1571.09,168.2958 1520.1,178.3258 1474,183.9658 C1219.81,215.0458 920.82,219.1291 787.05,219.2791 " fill="none" id="waitAck-to-processCommand" style="stroke:#181818;stroke-width:1.0;"/><polygon fill="#181818" points="781.05,219.2858,790.0545,223.2757,786.05,219.2802,790.0455,215.2757,781.05,219.2858" style="stroke:#181818;stroke-width:1.0;"/><text fill="#000000" font-family="sans-serif" font-size="13" lengthAdjust="spacing" textLength="133" x="1137.5" y="198.4609">Acknowledge Received</text></g><!--link waitAck to timeout--><g id="link_waitAck_timeout"><path d="M1768.2,128.9458 C1814.49,121.7358 1865.1715,113.849 1900.8115,108.299 " fill="none" id="waitAck-to-timeout" style="stroke:#181818;stroke-width:1.0;"/><polygon fill="#181818" points="1906.74,107.3758,1897.2317,104.8083,1901.7995,108.1452,1898.4627,112.713,1906.74,107.3758" style="stroke:#181818;stroke-width:1.0;"/><text fill="#000000" font-family="sans-serif" font-size="13" lengthAdjust="spacing" textLength="77" x="1799" y="109.4609">ACK Timeout</text></g><!--link timeout to receiveCommand--><g id="link_timeout_receiveCommand"><path d="M1906.91,93.1158 C1858.83,81.6058 1768.9,62.9658 1691,62.9658 C710.5,62.9658 710.5,62.9658 710.5,62.9658 C601.89,62.9658 499.4168,145.7124 452.1568,189.8124 " fill="none" id="timeout-to-receiveCommand" style="stroke:#181818;stroke-width:1.0;"/><polygon fill="#181818" points="447.77,193.9058,457.0791,190.6902,451.4256,190.4946,451.6212,184.8411,447.77,193.9058" style="stroke:#181818;stroke-width:1.0;"/><text fill="#000000" font-family="sans-serif" font-size="13" lengthAdjust="spacing" textLength="106" x="1151" y="59.4609">Resend Response</text></g><!--SRC=[RLB1JiGW5Bo_htZfqMH_e0UJTTU3CHgpDV5WF61vMuaKDa1tuzyB52gBlT5XvZ6TUKuuITXqPCvai7FC4Uu56mmR6m19HuTEen73bqCk3FLEQ0LW8r5mhsKMcmT_Q1BeEIJEjDFZo1IFruSPmeHbvidedgmjcIypL3CjANuWUzBApWzs7i2CPDOdu-MiEyRhEKwCf2SNhr_dSxxgPsQoEa_8qv8hMkPSc73R_ZkItlmPZzgW1vI-IEA3TmJlDn-usTp6Z2065Rwkmsbn4IS4glI2vZgc5lTQ4Su-XHhM5FKhEV-dIJfnaaiHTaqSlBRuh1TIM82K043LMH2KvRJuBxCroLzJBTuRu_zVg2K2A7fS-vlOVL6ktyPoFOAaAlFFbTSwxAO-63fEKlv0tNkGftgBUhQxHyYbhtLIT9_JvbU2j7bjc8HfzI2lutfdjjnn-0K0]--></g></svg>