<?xml version="1.0" encoding="us-ascii" standalone="no"?><svg xmlns="http://www.w3.org/2000/svg" xmlns:xlink="http://www.w3.org/1999/xlink" contentStyleType="text/css" height="383px" preserveAspectRatio="none" style="width:619px;height:383px;background:#FFFFFF;" version="1.1" viewBox="0 0 619 383" width="619px" zoomAndPan="magnify"><defs/><g><text fill="#000000" font-family="sans-serif" font-size="14" font-weight="bold" lengthAdjust="spacing" textLength="295" x="164.25" y="29.5332">Single Command CLIENT_SERVER Dup Ack</text><line style="stroke:#181818;stroke-width:0.5;stroke-dasharray:5.0,5.0;" x1="28.5" x2="28.5" y1="76.2188" y2="345.6797"/><line style="stroke:#181818;stroke-width:0.5;stroke-dasharray:5.0,5.0;" x1="324.5" x2="324.5" y1="76.2188" y2="345.6797"/><rect fill="#E2E2F0" height="31.6094" rx="2.5" ry="2.5" style="stroke:#181818;stroke-width:0.5;" width="47" x="5" y="43.6094"/><text fill="#000000" font-family="sans-serif" font-size="14" lengthAdjust="spacing" textLength="33" x="12" y="65.1426">client</text><rect fill="#E2E2F0" height="31.6094" rx="2.5" ry="2.5" style="stroke:#181818;stroke-width:0.5;" width="54" x="297.5" y="43.6094"/><text fill="#000000" font-family="sans-serif" font-size="14" lengthAdjust="spacing" textLength="40" x="304.5" y="65.1426">server</text><rect fill="#E2E2F0" height="31.6094" rx="2.5" ry="2.5" style="stroke:#181818;stroke-width:0.5;" width="47" x="5" y="345.6797"/><text fill="#000000" font-family="sans-serif" font-size="14" lengthAdjust="spacing" textLength="33" x="12" y="367.2129">client</text><rect fill="#E2E2F0" height="31.6094" rx="2.5" ry="2.5" style="stroke:#181818;stroke-width:0.5;" width="54" x="297.5" y="345.6797"/><text fill="#000000" font-family="sans-serif" font-size="14" lengthAdjust="spacing" textLength="40" x="304.5" y="367.2129">server</text><polygon fill="#181818" points="312.5,102.5703,322.5,106.5703,312.5,110.5703,316.5,106.5703" style="stroke:#181818;stroke-width:1.0;"/><line style="stroke:#181818;stroke-width:1.0;" x1="28.5" x2="318.5" y1="106.5703" y2="106.5703"/><text fill="#000000" font-family="sans-serif" font-size="13" lengthAdjust="spacing" textLength="272" x="35.5" y="101.7139">Request [ID=01, PRIORITY=APP, COMMAND]</text><line style="stroke:#181818;stroke-width:1.0;" x1="324.5" x2="366.5" y1="136.9219" y2="136.9219"/><line style="stroke:#181818;stroke-width:1.0;" x1="366.5" x2="366.5" y1="136.9219" y2="149.9219"/><line style="stroke:#181818;stroke-width:1.0;" x1="325.5" x2="366.5" y1="149.9219" y2="149.9219"/><polygon fill="#181818" points="335.5,145.9219,325.5,149.9219,335.5,153.9219,331.5,149.9219" style="stroke:#181818;stroke-width:1.0;"/><text fill="#000000" font-family="sans-serif" font-size="13" lengthAdjust="spacing" textLength="281" x="331.5" y="132.0654">Process [ID=01, PRIORITY=USER, COMMAND]</text><polygon fill="#181818" points="39.5,176.2734,29.5,180.2734,39.5,184.2734,35.5,180.2734" style="stroke:#181818;stroke-width:1.0;"/><line style="stroke:#181818;stroke-width:1.0;" x1="33.5" x2="323.5" y1="180.2734" y2="180.2734"/><text fill="#000000" font-family="sans-serif" font-size="13" lengthAdjust="spacing" textLength="142" x="45.5" y="175.417">Send [ID=01, Response]</text><line style="stroke:#181818;stroke-width:1.0;" x1="28.5" x2="70.5" y1="210.625" y2="210.625"/><line style="stroke:#181818;stroke-width:1.0;" x1="70.5" x2="70.5" y1="210.625" y2="223.625"/><line style="stroke:#181818;stroke-width:1.0;" x1="29.5" x2="70.5" y1="223.625" y2="223.625"/><polygon fill="#181818" points="39.5,219.625,29.5,223.625,39.5,227.625,35.5,223.625" style="stroke:#181818;stroke-width:1.0;"/><text fill="#000000" font-family="sans-serif" font-size="13" lengthAdjust="spacing" textLength="110" x="35.5" y="205.7686">Process Response</text><polygon fill="#181818" points="312.5,249.9766,322.5,253.9766,312.5,257.9766,316.5,253.9766" style="stroke:#181818;stroke-width:1.0;"/><line style="stroke:#181818;stroke-width:1.0;" x1="28.5" x2="318.5" y1="253.9766" y2="253.9766"/><text fill="#000000" font-family="sans-serif" font-size="13" lengthAdjust="spacing" textLength="57" x="35.5" y="249.1201">OK ID=01</text><polygon fill="#181818" points="312.5,280.3281,322.5,284.3281,312.5,288.3281,316.5,284.3281" style="stroke:#181818;stroke-width:1.0;"/><line style="stroke:#181818;stroke-width:1.0;" x1="28.5" x2="318.5" y1="284.3281" y2="284.3281"/><text fill="#000000" font-family="sans-serif" font-size="13" lengthAdjust="spacing" textLength="57" x="35.5" y="279.4717">OK ID=01</text><line style="stroke:#181818;stroke-width:1.0;" x1="324.5" x2="366.5" y1="314.6797" y2="314.6797"/><line style="stroke:#181818;stroke-width:1.0;" x1="366.5" x2="366.5" y1="314.6797" y2="327.6797"/><line style="stroke:#181818;stroke-width:1.0;" x1="325.5" x2="366.5" y1="327.6797" y2="327.6797"/><polygon fill="#181818" points="335.5,323.6797,325.5,327.6797,335.5,331.6797,331.5,327.6797" style="stroke:#181818;stroke-width:1.0;"/><text fill="#000000" font-family="sans-serif" font-size="13" lengthAdjust="spacing" textLength="94" x="331.5" y="309.8232">Discard Dup OK</text><!--SRC=[VP112u9048Nl-oicpmPr3Gf4FOYPibeG4R6iWopbkksk7VhrIIOPHQU1D- -RUJDMs0k2amjPTTLlwfh94lnr56wAKnxINKWXQ1Lu_EoGYTAigXbOREvWTOk4AAQju48nQO5V14hx8HdKDzI4z2sOhbxA0YXUMpGM3b6mdCrTo6YKqgZOBxqiSy5FayJR14T2Ul-Op7J3qPXlSjlb7Q5lij- -W1oxsmQCeb6DD7WSXHkCmuh1yoD_6iDpqB_MT_P06Cvq-Nnf6fC7]--></g></svg>