<?xml version="1.0" encoding="us-ascii" standalone="no"?><svg xmlns="http://www.w3.org/2000/svg" xmlns:xlink="http://www.w3.org/1999/xlink" contentStyleType="text/css" height="307px" preserveAspectRatio="none" style="width:1554px;height:307px;background:#FFFFFF;" version="1.1" viewBox="0 0 1554 307" width="1554px" zoomAndPan="magnify"><defs/><g><text fill="#000000" font-family="sans-serif" font-size="14" font-weight="bold" lengthAdjust="spacing" textLength="142" x="699" y="24.5332">Client State Diagram</text><g id="idle"><rect fill="#F1F1F1" height="50" rx="12.5" ry="12.5" style="stroke:#181818;stroke-width:0.5;" width="50" x="97.5" y="241.6094"/><line style="stroke:#181818;stroke-width:0.5;" x1="97.5" x2="147.5" y1="269.2188" y2="269.2188"/><text fill="#000000" font-family="sans-serif" font-size="14" lengthAdjust="spacing" textLength="22" x="111.5" y="261.1426">Idle</text></g><g id="sendCommands"><rect fill="#F1F1F1" height="50" rx="12.5" ry="12.5" style="stroke:#181818;stroke-width:0.5;" width="128" x="331.5" y="197.6094"/><line style="stroke:#181818;stroke-width:0.5;" x1="331.5" x2="459.5" y1="225.2188" y2="225.2188"/><text fill="#000000" font-family="sans-serif" font-size="14" lengthAdjust="spacing" textLength="108" x="341.5" y="217.1426">Send Commands</text></g><g id="waitResp"><rect fill="#F1F1F1" height="50" rx="12.5" ry="12.5" style="stroke:#181818;stroke-width:0.5;" width="163" x="682.5" y="80.6094"/><line style="stroke:#181818;stroke-width:0.5;" x1="682.5" x2="845.5" y1="108.2188" y2="108.2188"/><text fill="#000000" font-family="sans-serif" font-size="14" lengthAdjust="spacing" textLength="143" x="692.5" y="100.1426">Waiting for Responses</text></g><g id="processResp"><rect fill="#F1F1F1" height="50" rx="12.5" ry="12.5" style="stroke:#181818;stroke-width:0.5;" width="139" x="1057" y="123.6094"/><line style="stroke:#181818;stroke-width:0.5;" x1="1057" x2="1196" y1="151.2188" y2="151.2188"/><text fill="#000000" font-family="sans-serif" font-size="14" lengthAdjust="spacing" textLength="119" x="1067" y="143.1426">Process Response</text></g><g id="badResp"><rect fill="#F1F1F1" height="50" rx="12.5" ry="12.5" style="stroke:#181818;stroke-width:0.5;" width="113" x="1429" y="45.6094"/><line style="stroke:#181818;stroke-width:0.5;" x1="1429" x2="1542" y1="73.2188" y2="73.2188"/><text fill="#000000" font-family="sans-serif" font-size="14" lengthAdjust="spacing" textLength="93" x="1439" y="65.1426">Bad Response</text></g><g id="goodResp"><rect fill="#F1F1F1" height="50" rx="12.5" ry="12.5" style="stroke:#181818;stroke-width:0.5;" width="123" x="1424" y="201.6094"/><line style="stroke:#181818;stroke-width:0.5;" x1="1424" x2="1547" y1="229.2188" y2="229.2188"/><text fill="#000000" font-family="sans-serif" font-size="14" lengthAdjust="spacing" textLength="103" x="1434" y="221.1426">Good Response</text></g><g id="timeout"><rect fill="#F1F1F1" height="50" rx="12.5" ry="12.5" style="stroke:#181818;stroke-width:0.5;" width="71" x="87" y="66.6094"/><line style="stroke:#181818;stroke-width:0.5;" x1="87" x2="158" y1="94.2188" y2="94.2188"/><text fill="#000000" font-family="sans-serif" font-size="14" lengthAdjust="spacing" textLength="51" x="97" y="86.1426">Timeout</text></g><g id="resendCommand"><rect fill="#F1F1F1" height="50" rx="12.5" ry="12.5" style="stroke:#181818;stroke-width:0.5;" width="137" x="327" y="66.6094"/><line style="stroke:#181818;stroke-width:0.5;" x1="327" x2="464" y1="94.2188" y2="94.2188"/><text fill="#000000" font-family="sans-serif" font-size="14" lengthAdjust="spacing" textLength="117" x="337" y="86.1426">Resend Command</text></g><ellipse cx="16" cy="266.6094" fill="#222222" rx="10" ry="10" style="stroke:#222222;stroke-width:1.0;"/><!--link *start* to idle--><g id="link_*start*_idle"><path d="M26.27,266.6094 C42.06,266.6094 68.63,266.6094 91.26,266.6094 " fill="none" id="*start*-to-idle" style="stroke:#181818;stroke-width:1.0;"/><polygon fill="#181818" points="97.26,266.6094,88.26,262.6094,92.26,266.6094,88.26,270.6094,97.26,266.6094" style="stroke:#181818;stroke-width:1.0;"/></g><!--link idle to sendCommands--><g id="link_idle_sendCommands"><path d="M147.55,262.7094 C188.42,256.0694 266.7676,243.3514 325.4376,233.8214 " fill="none" id="idle-to-sendCommands" style="stroke:#181818;stroke-width:1.0;"/><polygon fill="#181818" points="331.36,232.8594,321.8351,230.3541,326.4247,233.661,323.1178,238.2506,331.36,232.8594" style="stroke:#181818;stroke-width:1.0;"/><text fill="#000000" font-family="sans-serif" font-size="13" lengthAdjust="spacing" textLength="100" x="192.5" y="236.1045">Send Commands</text></g><!--link sendCommands to sendCommands--><g id="link_sendCommands_sendCommands"><path d="M369.78,197.3294 C361.99,179.8394 370.56,162.6094 395.5,162.6094 C420.44,162.6094 431.4512,174.3584 423.6612,191.8484 " fill="none" id="sendCommands-to-sendCommands" style="stroke:#181818;stroke-width:1.0;"/><polygon fill="#181818" points="421.22,197.3294,428.5357,190.7354,423.2543,192.7619,421.2278,187.4805,421.22,197.3294" style="stroke:#181818;stroke-width:1.0;"/><text fill="#000000" font-family="sans-serif" font-size="13" lengthAdjust="spacing" textLength="124" x="333.5" y="154.1045">Send Next Command</text></g><!--link sendCommands to waitResp--><g id="link_sendCommands_waitResp"><path d="M459.5,202.4994 C521.82,182.5994 611.644,153.9236 678.854,132.4736 " fill="none" id="sendCommands-to-waitResp" style="stroke:#181818;stroke-width:1.0;"/><polygon fill="#181818" points="684.57,130.6494,674.7799,129.5751,679.8067,132.1696,677.2122,137.1964,684.57,130.6494" style="stroke:#181818;stroke-width:1.0;"/><text fill="#000000" font-family="sans-serif" font-size="13" lengthAdjust="spacing" textLength="151" x="495" y="140.1045">Done Sending Commands</text></g><!--link waitResp to processResp--><g id="link_waitResp_processResp"><path d="M845.9,115.2594 C909.43,122.8394 990.9322,132.5586 1051.0322,139.7286 " fill="none" id="waitResp-to-processResp" style="stroke:#181818;stroke-width:1.0;"/><polygon fill="#181818" points="1056.99,140.4394,1048.5272,135.4014,1052.0252,139.8471,1047.5795,143.3451,1056.99,140.4394" style="stroke:#181818;stroke-width:1.0;"/><text fill="#000000" font-family="sans-serif" font-size="13" lengthAdjust="spacing" textLength="107" x="900.5" y="116.1045">Receive Response</text></g><!--link processResp to badResp--><g id="link_processResp_badResp"><path d="M1196.1,137.4394 C1250.17,128.1694 1327.3,113.8994 1394,97.6094 C1405.31,94.8494 1411.5508,93.2223 1422.9808,89.8823 " fill="none" id="processResp-to-badResp" style="stroke:#181818;stroke-width:1.0;"/><polygon fill="#181818" points="1428.74,88.1994,1418.9793,86.8843,1423.9407,89.6018,1421.2232,94.5632,1428.74,88.1994" style="stroke:#181818;stroke-width:1.0;"/><text fill="#000000" font-family="sans-serif" font-size="13" lengthAdjust="spacing" textLength="104" x="1258" y="94.1045">Error in Response</text></g><!--link processResp to goodResp--><g id="link_processResp_goodResp"><path d="M1196.04,160.2894 C1250.08,169.8994 1327.2,184.5294 1394,200.6094 C1403.69,202.9394 1408.1291,204.0326 1418.0591,206.7926 " fill="none" id="processResp-to-goodResp" style="stroke:#181818;stroke-width:1.0;"/><polygon fill="#181818" points="1423.84,208.3994,1416.2399,202.1353,1419.0226,207.0604,1414.0975,209.8431,1423.84,208.3994" style="stroke:#181818;stroke-width:1.0;"/><text fill="#000000" font-family="sans-serif" font-size="13" lengthAdjust="spacing" textLength="166" x="1227" y="163.1045">Received &amp; Parsed Correctly</text></g><!--link goodResp to sendCommands--><g id="link_goodResp_sendCommands"><path d="M1423.83,226.3894 C1234.05,225.6894 658.9,223.5714 465.7,222.8614 " fill="none" id="goodResp-to-sendCommands" style="stroke:#181818;stroke-width:1.0;"/><polygon fill="#181818" points="459.7,222.8394,468.6852,226.8724,464.7,222.8577,468.7146,218.8725,459.7,222.8394" style="stroke:#181818;stroke-width:1.0;"/><text fill="#000000" font-family="sans-serif" font-size="13" lengthAdjust="spacing" textLength="144" x="882" y="221.1045">Send OK + Command ID</text></g><!--link badResp to waitResp--><g id="link_badResp_waitResp"><path d="M1428.77,71.1594 C1376.4,71.7994 1295.87,73.1094 1226,75.6094 C1072.56,81.0994 1034.08,81.7094 881,93.6094 C869.6,94.4994 863.5422,95.0029 851.7322,96.1429 " fill="none" id="badResp-to-waitResp" style="stroke:#181818;stroke-width:1.0;"/><polygon fill="#181818" points="845.76,96.7194,855.1027,99.8361,850.7369,96.239,854.334,91.8731,845.76,96.7194" style="stroke:#181818;stroke-width:1.0;"/><text fill="#000000" font-family="sans-serif" font-size="13" lengthAdjust="spacing" textLength="107" x="1073" y="74.1045">Resend Command</text></g><!--link timeout to resendCommand--><g id="link_timeout_resendCommand"><path d="M158.1,91.6094 C200.48,91.6094 267.24,91.6094 320.87,91.6094 " fill="none" id="timeout-to-resendCommand" style="stroke:#181818;stroke-width:1.0;"/><polygon fill="#181818" points="326.87,91.6094,317.87,87.6094,321.87,91.6094,317.87,95.6094,326.87,91.6094" style="stroke:#181818;stroke-width:1.0;"/><text fill="#000000" font-family="sans-serif" font-size="13" lengthAdjust="spacing" textLength="107" x="189" y="88.1045">Resend Command</text></g><!--link resendCommand to waitResp--><g id="link_resendCommand_waitResp"><path d="M464.15,94.1894 C525.78,96.5494 610.9144,99.8002 676.3244,102.3002 " fill="none" id="resendCommand-to-waitResp" style="stroke:#181818;stroke-width:1.0;"/><polygon fill="#181818" points="682.32,102.5294,673.4793,98.1886,677.3236,102.3384,673.1738,106.1827,682.32,102.5294" style="stroke:#181818;stroke-width:1.0;"/><text fill="#000000" font-family="sans-serif" font-size="13" lengthAdjust="spacing" textLength="104" x="518.5" y="92.1045">Command Resent</text></g><!--link goodResp to idle--><g id="link_goodResp_idle"><path d="M1423.7,247.1194 C1353.28,269.0194 1233.36,300.6094 1127.5,300.6094 C394.5,300.6094 394.5,300.6094 394.5,300.6094 C302.75,300.6094 200.7523,282.3718 153.5423,272.8818 " fill="none" id="goodResp-to-idle" style="stroke:#181818;stroke-width:1.0;"/><polygon fill="#181818" points="147.66,271.6994,155.6952,277.3946,152.5619,272.6847,157.2718,269.5515,147.66,271.6994" style="stroke:#181818;stroke-width:1.0;"/><text fill="#000000" font-family="sans-serif" font-size="13" lengthAdjust="spacing" textLength="172" x="678" y="297.1045">Done Handling All Responses</text></g><!--SRC=[TPBDJWCX483lynIJFNZGz0NsOA9TOniJRLeJ3yO3bkbAma83uz_R2xJGnKrlpF0DCD_0YZLXCzUA3EE61HDsIlHE30s0fXqZMtIg_s2Koj6MbJK0Fe5AXbhXiLc6HNDCUZ9oReT16EdJvYOaC6SozIqKhydl4_4I0cLwt5c7CMcDfqBkdTsIzmLU7U82PkvToCBS2ZdPxwqz0VSXc12i1hAVd83dmpflEHgrbO1rokI-WglNopUSpQwJ54XcOZIsqMAb0YfJP-17-k5SCIt85blihA5K4JsM6w1eZlJ8P1kQtvBweY81nfuZVVJPufrpOIxAd4UpsdAgn0jS2USfTklYhz6_06K2PtfzUi2h_7PSTf0dMdTQYuSyj0XLKvgGzGphGtCsbV2_fyPX7Wql0gIZuXkjJryL_W00]--></g></svg>