<?xml version="1.0" encoding="us-ascii" standalone="no"?><svg xmlns="http://www.w3.org/2000/svg" xmlns:xlink="http://www.w3.org/1999/xlink" contentStyleType="text/css" height="484px" preserveAspectRatio="none" style="width:548px;height:484px;background:#FFFFFF;" version="1.1" viewBox="0 0 548 484" width="548px" zoomAndPan="magnify"><defs/><g><text fill="#000000" font-family="sans-serif" font-size="14" font-weight="bold" lengthAdjust="spacing" textLength="383" x="103.75" y="29.5332">Single Command CLIENT_SERVER Corrupted Command</text><line style="stroke:#181818;stroke-width:0.5;stroke-dasharray:5.0,5.0;" x1="47.5" x2="47.5" y1="76.2188" y2="447.2188"/><line style="stroke:#181818;stroke-width:0.5;stroke-dasharray:5.0,5.0;" x1="376.5" x2="376.5" y1="76.2188" y2="447.2188"/><rect fill="#E2E2F0" height="31.6094" rx="2.5" ry="2.5" style="stroke:#181818;stroke-width:0.5;" width="47" x="24" y="43.6094"/><text fill="#000000" font-family="sans-serif" font-size="14" lengthAdjust="spacing" textLength="33" x="31" y="65.1426">client</text><rect fill="#E2E2F0" height="31.6094" rx="2.5" ry="2.5" style="stroke:#181818;stroke-width:0.5;" width="54" x="349.5" y="43.6094"/><text fill="#000000" font-family="sans-serif" font-size="14" lengthAdjust="spacing" textLength="40" x="356.5" y="65.1426">server</text><rect fill="#E2E2F0" height="31.6094" rx="2.5" ry="2.5" style="stroke:#181818;stroke-width:0.5;" width="47" x="24" y="447.2188"/><text fill="#000000" font-family="sans-serif" font-size="14" lengthAdjust="spacing" textLength="33" x="31" y="468.752">client</text><rect fill="#E2E2F0" height="31.6094" rx="2.5" ry="2.5" style="stroke:#181818;stroke-width:0.5;" width="54" x="349.5" y="447.2188"/><text fill="#000000" font-family="sans-serif" font-size="14" lengthAdjust="spacing" textLength="40" x="356.5" y="468.752">server</text><polygon fill="#181818" points="364.5,102.5703,374.5,106.5703,364.5,110.5703,368.5,106.5703" style="stroke:#181818;stroke-width:1.0;"/><line style="stroke:#181818;stroke-width:1.0;" x1="47.5" x2="370.5" y1="106.5703" y2="106.5703"/><text fill="#000000" font-family="sans-serif" font-size="13" lengthAdjust="spacing" textLength="272" x="54.5" y="101.7139">Request [ID=01, PRIORITY=APP, COMMAND]</text><line style="stroke:#181818;stroke-width:1.0;" x1="376.5" x2="418.5" y1="136.9219" y2="136.9219"/><line style="stroke:#181818;stroke-width:1.0;" x1="418.5" x2="418.5" y1="136.9219" y2="149.9219"/><line style="stroke:#181818;stroke-width:1.0;" x1="377.5" x2="418.5" y1="149.9219" y2="149.9219"/><polygon fill="#181818" points="387.5,145.9219,377.5,149.9219,387.5,153.9219,383.5,149.9219" style="stroke:#181818;stroke-width:1.0;"/><text fill="#000000" font-family="sans-serif" font-size="13" lengthAdjust="spacing" textLength="158" x="383.5" y="132.0654">Process [ID=0X, Corrupted]</text><polygon fill="#181818" points="58.5,176.2734,48.5,180.2734,58.5,184.2734,54.5,180.2734" style="stroke:#181818;stroke-width:1.0;"/><line style="stroke:#181818;stroke-width:1.0;" x1="52.5" x2="375.5" y1="180.2734" y2="180.2734"/><text fill="#000000" font-family="sans-serif" font-size="13" lengthAdjust="spacing" textLength="305" x="64.5" y="175.417">Send [ID=0X, Corrupted or Not Supported Command]</text><line style="stroke:#181818;stroke-width:1.0;" x1="47.5" x2="89.5" y1="210.625" y2="210.625"/><line style="stroke:#181818;stroke-width:1.0;" x1="89.5" x2="89.5" y1="210.625" y2="223.625"/><line style="stroke:#181818;stroke-width:1.0;" x1="48.5" x2="89.5" y1="223.625" y2="223.625"/><polygon fill="#181818" points="58.5,219.625,48.5,223.625,58.5,227.625,54.5,223.625" style="stroke:#181818;stroke-width:1.0;"/><text fill="#000000" font-family="sans-serif" font-size="13" lengthAdjust="spacing" textLength="110" x="54.5" y="205.7686">Process Response</text><path d="M8,235.625 L69,235.625 L69,243.9766 L59,253.9766 L8,253.9766 L8,235.625 " fill="#EEEEEE" style="stroke:#000000;stroke-width:1.5;"/><rect fill="none" height="187.5938" style="stroke:#000000;stroke-width:1.5;" width="411.5" x="8" y="235.625"/><text fill="#000000" font-family="sans-serif" font-size="13" font-weight="bold" lengthAdjust="spacing" textLength="16" x="23" y="250.1201">alt</text><text fill="#000000" font-family="sans-serif" font-size="11" font-weight="bold" lengthAdjust="spacing" textLength="126" x="84" y="249.0439">[x is a valid id i.e x = 01]</text><line style="stroke:#000000;stroke-width:1.0;stroke-dasharray:2.0,2.0;" x1="8" x2="419.5" y1="366.0313" y2="366.0313"/><text fill="#000000" font-family="sans-serif" font-size="11" font-weight="bold" lengthAdjust="spacing" textLength="69" x="13" y="379.4502">[x isn't valid]</text><polygon fill="#181818" points="364.5,282.3281,374.5,286.3281,364.5,290.3281,368.5,286.3281" style="stroke:#181818;stroke-width:1.0;"/><line style="stroke:#181818;stroke-width:1.0;" x1="47.5" x2="370.5" y1="286.3281" y2="286.3281"/><text fill="#000000" font-family="sans-serif" font-size="13" lengthAdjust="spacing" textLength="268" x="54.5" y="281.4717">Resend [ID=01, PRIORITY=APP, COMMAND]</text><polygon fill="#181818" points="58.5,312.6797,48.5,316.6797,58.5,320.6797,54.5,316.6797" style="stroke:#181818;stroke-width:1.0;"/><line style="stroke:#181818;stroke-width:1.0;" x1="52.5" x2="375.5" y1="316.6797" y2="316.6797"/><text fill="#000000" font-family="sans-serif" font-size="13" lengthAdjust="spacing" textLength="156" x="64.5" y="311.8232">Resend [ID=01, Response]</text><polygon fill="#181818" points="364.5,343.0313,374.5,347.0313,364.5,351.0313,368.5,347.0313" style="stroke:#181818;stroke-width:1.0;"/><line style="stroke:#181818;stroke-width:1.0;" x1="47.5" x2="370.5" y1="347.0313" y2="347.0313"/><text fill="#000000" font-family="sans-serif" font-size="13" lengthAdjust="spacing" textLength="57" x="54.5" y="342.1748">OK ID=01</text><path d="M27.25,391.8672 L27.25,417.8672 L396.25,417.8672 L396.25,401.8672 L386.25,391.8672 L27.25,391.8672 " fill="#FEFFDD" style="stroke:#181818;stroke-width:0.5;"/><path d="M386.25,391.8672 L386.25,401.8672 L396.25,401.8672 L386.25,391.8672 " fill="#FEFFDD" style="stroke:#181818;stroke-width:0.5;"/><text fill="#000000" font-family="sans-serif" font-size="13" lengthAdjust="spacing" textLength="289" x="63" y="410.3623">Wait for timeout and execute timeout mechanism.</text><!--SRC=[TL9TQy8m57tFhpZpPI-TwAlWGDI7igcbbNqmoWZrpWNQf4jkHVRhbxPsw-Qy11BElUVUSvAmufmmI9JU-trkYaBg7URtuNAzVKsMySCozgYrLScqw_83SLLQkIyacCmds5OaH2ajgqoLKZEoN97cNv0ZUo0hH9l2pUq9cI2cZueSuoLSJ4VZ054SRk9m-poTHL60-MQrcgqNgH1jVPyPMPEHSotpAVWHclQAsu4J9EIDdLN2MAmD8wdAqjYUnxIdj6lHpOl9bKOxRrhcZ2EKWyH1vcg7UWt9OrECnW8-_ZFilhLSzbjpprtyuNPAqWkZDdTeAWNbZXgb-ffRgGr36oQOUaRB3RftmYaUfMAy-KjYLP2f6FNte2DbbITsM47PkzJA5SE6Lmki6mj_45y0]--></g></svg>