<?xml version="1.0" encoding="us-ascii" standalone="no"?><svg xmlns="http://www.w3.org/2000/svg" xmlns:xlink="http://www.w3.org/1999/xlink" contentStyleType="text/css" height="695px" preserveAspectRatio="none" style="width:628px;height:695px;background:#FFFFFF;" version="1.1" viewBox="0 0 628 695" width="628px" zoomAndPan="magnify"><defs/><g><text fill="#000000" font-family="sans-serif" font-size="14" font-weight="bold" lengthAdjust="spacing" textLength="322" x="155.25" y="29.5332">Multiple Commands CLIENT_SERVER TIMEOUT</text><line style="stroke:#181818;stroke-width:1.0;" x1="129.25" x2="129.25" y1="108.5703" y2="536.2891"/><polygon fill="#181818" points="125.25,118.5703,129.25,108.5703,133.25,118.5703,129.25,114.5703" style="stroke:#181818;stroke-width:1.0;"/><polygon fill="#181818" points="125.25,526.2891,129.25,536.2891,133.25,526.2891,129.25,530.2891" style="stroke:#181818;stroke-width:1.0;"/><text fill="#000000" font-family="sans-serif" font-size="13" lengthAdjust="spacing" textLength="40" x="133.25" y="327.749">timer 1</text><line style="stroke:#181818;stroke-width:1.0;" x1="181" x2="181" y1="138.9219" y2="429.7344"/><polygon fill="#181818" points="177,148.9219,181,138.9219,185,148.9219,181,144.9219" style="stroke:#181818;stroke-width:1.0;"/><polygon fill="#181818" points="177,419.7344,181,429.7344,185,419.7344,181,423.7344" style="stroke:#181818;stroke-width:1.0;"/><text fill="#000000" font-family="sans-serif" font-size="13" lengthAdjust="spacing" textLength="40" x="185" y="289.6475">timer 2</text><line style="stroke:#181818;stroke-width:1.0;" x1="181" x2="181" y1="169.2734" y2="460.0859"/><polygon fill="#181818" points="177,179.2734,181,169.2734,185,179.2734,181,175.2734" style="stroke:#181818;stroke-width:1.0;"/><polygon fill="#181818" points="177,450.0859,181,460.0859,185,450.0859,181,454.0859" style="stroke:#181818;stroke-width:1.0;"/><text fill="#000000" font-family="sans-serif" font-size="13" lengthAdjust="spacing" textLength="40" x="185" y="319.999">timer 3</text><line style="stroke:#181818;stroke-width:1.0;" x1="129.25" x2="129.25" y1="540.2891" y2="607.4922"/><polygon fill="#181818" points="125.25,550.2891,129.25,540.2891,133.25,550.2891,129.25,546.2891" style="stroke:#181818;stroke-width:1.0;"/><polygon fill="#181818" points="125.25,597.4922,129.25,607.4922,133.25,597.4922,129.25,601.4922" style="stroke:#181818;stroke-width:1.0;"/><text fill="#000000" font-family="sans-serif" font-size="13" lengthAdjust="spacing" textLength="40" x="133.25" y="579.21">timer 1</text><line style="stroke:#181818;stroke-width:0.5;stroke-dasharray:5.0,5.0;" x1="28.5" x2="28.5" y1="76.2188" y2="657.8438"/><line style="stroke:#181818;stroke-width:0.5;stroke-dasharray:5.0,5.0;" x1="333.5" x2="333.5" y1="76.2188" y2="657.8438"/><rect fill="#E2E2F0" height="31.6094" rx="2.5" ry="2.5" style="stroke:#181818;stroke-width:0.5;" width="47" x="5" y="43.6094"/><text fill="#000000" font-family="sans-serif" font-size="14" lengthAdjust="spacing" textLength="33" x="12" y="65.1426">client</text><rect fill="#E2E2F0" height="31.6094" rx="2.5" ry="2.5" style="stroke:#181818;stroke-width:0.5;" width="54" x="306.5" y="43.6094"/><text fill="#000000" font-family="sans-serif" font-size="14" lengthAdjust="spacing" textLength="40" x="313.5" y="65.1426">server</text><rect fill="#E2E2F0" height="31.6094" rx="2.5" ry="2.5" style="stroke:#181818;stroke-width:0.5;" width="47" x="5" y="657.8438"/><text fill="#000000" font-family="sans-serif" font-size="14" lengthAdjust="spacing" textLength="33" x="12" y="679.377">client</text><rect fill="#E2E2F0" height="31.6094" rx="2.5" ry="2.5" style="stroke:#181818;stroke-width:0.5;" width="54" x="306.5" y="657.8438"/><text fill="#000000" font-family="sans-serif" font-size="14" lengthAdjust="spacing" textLength="40" x="313.5" y="679.377">server</text><polygon fill="#181818" points="321.5,102.5703,331.5,106.5703,321.5,110.5703,325.5,106.5703" style="stroke:#181818;stroke-width:1.0;"/><line style="stroke:#181818;stroke-width:1.0;" x1="28.5" x2="327.5" y1="106.5703" y2="106.5703"/><text fill="#000000" font-family="sans-serif" font-size="13" lengthAdjust="spacing" textLength="272" x="35.5" y="101.7139">Request [ID=01, PRIORITY=APP, COMMAND]</text><polygon fill="#181818" points="321.5,132.9219,331.5,136.9219,321.5,140.9219,325.5,136.9219" style="stroke:#181818;stroke-width:1.0;"/><line style="stroke:#181818;stroke-width:1.0;" x1="28.5" x2="327.5" y1="136.9219" y2="136.9219"/><text fill="#000000" font-family="sans-serif" font-size="13" lengthAdjust="spacing" textLength="281" x="35.5" y="132.0654">Request [ID=02, PRIORITY=USER, COMMAND]</text><polygon fill="#181818" points="321.5,163.2734,331.5,167.2734,321.5,171.2734,325.5,167.2734" style="stroke:#181818;stroke-width:1.0;"/><line style="stroke:#181818;stroke-width:1.0;" x1="28.5" x2="327.5" y1="167.2734" y2="167.2734"/><text fill="#000000" font-family="sans-serif" font-size="13" lengthAdjust="spacing" textLength="272" x="35.5" y="162.417">Request [ID=03, PRIORITY=APP, COMMAND]</text><line style="stroke:#181818;stroke-width:1.0;" x1="333.5" x2="375.5" y1="197.625" y2="197.625"/><line style="stroke:#181818;stroke-width:1.0;" x1="375.5" x2="375.5" y1="197.625" y2="210.625"/><line style="stroke:#181818;stroke-width:1.0;" x1="334.5" x2="375.5" y1="210.625" y2="210.625"/><polygon fill="#181818" points="344.5,206.625,334.5,210.625,344.5,214.625,340.5,210.625" style="stroke:#181818;stroke-width:1.0;"/><text fill="#000000" font-family="sans-serif" font-size="13" lengthAdjust="spacing" textLength="281" x="340.5" y="192.7686">Process [ID=02, PRIORITY=USER, COMMAND]</text><polygon fill="#181818" points="39.5,236.9766,29.5,240.9766,39.5,244.9766,35.5,240.9766" style="stroke:#181818;stroke-width:1.0;"/><line style="stroke:#181818;stroke-width:1.0;" x1="33.5" x2="332.5" y1="240.9766" y2="240.9766"/><text fill="#000000" font-family="sans-serif" font-size="13" lengthAdjust="spacing" textLength="142" x="45.5" y="236.1201">Send [ID=02, Response]</text><line style="stroke:#181818;stroke-width:1.0;" x1="28.5" x2="70.5" y1="271.3281" y2="271.3281"/><line style="stroke:#181818;stroke-width:1.0;" x1="70.5" x2="70.5" y1="271.3281" y2="284.3281"/><line style="stroke:#181818;stroke-width:1.0;" x1="29.5" x2="70.5" y1="284.3281" y2="284.3281"/><polygon fill="#181818" points="39.5,280.3281,29.5,284.3281,39.5,288.3281,35.5,284.3281" style="stroke:#181818;stroke-width:1.0;"/><text fill="#000000" font-family="sans-serif" font-size="13" lengthAdjust="spacing" textLength="110" x="35.5" y="266.4717">Process Response</text><line style="stroke:#181818;stroke-width:1.0;" x1="333.5" x2="375.5" y1="314.6797" y2="314.6797"/><line style="stroke:#181818;stroke-width:1.0;" x1="375.5" x2="375.5" y1="314.6797" y2="327.6797"/><line style="stroke:#181818;stroke-width:1.0;" x1="334.5" x2="375.5" y1="327.6797" y2="327.6797"/><polygon fill="#181818" points="344.5,323.6797,334.5,327.6797,344.5,331.6797,340.5,327.6797" style="stroke:#181818;stroke-width:1.0;"/><text fill="#000000" font-family="sans-serif" font-size="13" lengthAdjust="spacing" textLength="272" x="340.5" y="309.8232">Process [ID=03, PRIORITY=APP, COMMAND]</text><polygon fill="#181818" points="39.5,354.0313,29.5,358.0313,39.5,362.0313,35.5,358.0313" style="stroke:#181818;stroke-width:1.0;"/><line style="stroke:#181818;stroke-width:1.0;" x1="33.5" x2="332.5" y1="358.0313" y2="358.0313"/><text fill="#000000" font-family="sans-serif" font-size="13" lengthAdjust="spacing" textLength="142" x="45.5" y="353.1748">Send [ID=03, Response]</text><line style="stroke:#181818;stroke-width:1.0;" x1="28.5" x2="70.5" y1="388.3828" y2="388.3828"/><line style="stroke:#181818;stroke-width:1.0;" x1="70.5" x2="70.5" y1="388.3828" y2="401.3828"/><line style="stroke:#181818;stroke-width:1.0;" x1="29.5" x2="70.5" y1="401.3828" y2="401.3828"/><polygon fill="#181818" points="39.5,397.3828,29.5,401.3828,39.5,405.3828,35.5,401.3828" style="stroke:#181818;stroke-width:1.0;"/><text fill="#000000" font-family="sans-serif" font-size="13" lengthAdjust="spacing" textLength="110" x="35.5" y="383.5264">Process Response</text><polygon fill="#181818" points="321.5,427.7344,331.5,431.7344,321.5,435.7344,325.5,431.7344" style="stroke:#181818;stroke-width:1.0;"/><line style="stroke:#181818;stroke-width:1.0;" x1="28.5" x2="327.5" y1="431.7344" y2="431.7344"/><text fill="#000000" font-family="sans-serif" font-size="13" lengthAdjust="spacing" textLength="37" x="35.5" y="426.8779">OK 02</text><polygon fill="#181818" points="321.5,458.0859,331.5,462.0859,321.5,466.0859,325.5,462.0859" style="stroke:#181818;stroke-width:1.0;"/><line style="stroke:#181818;stroke-width:1.0;" x1="28.5" x2="327.5" y1="462.0859" y2="462.0859"/><text fill="#000000" font-family="sans-serif" font-size="13" lengthAdjust="spacing" textLength="37" x="35.5" y="457.2295">OK 03</text><line style="stroke:#181818;stroke-width:1.0;" x1="333.5" x2="375.5" y1="492.4375" y2="492.4375"/><line style="stroke:#181818;stroke-width:1.0;" x1="375.5" x2="375.5" y1="492.4375" y2="505.4375"/><line style="stroke:#181818;stroke-width:1.0;" x1="334.5" x2="375.5" y1="505.4375" y2="505.4375"/><polygon fill="#181818" points="344.5,501.4375,334.5,505.4375,344.5,509.4375,340.5,505.4375" style="stroke:#181818;stroke-width:1.0;"/><text fill="#000000" font-family="sans-serif" font-size="13" lengthAdjust="spacing" textLength="272" x="340.5" y="487.5811">Process [ID=01, PRIORITY=APP, COMMAND]</text><line style="stroke:#FF0000;stroke-width:1.0;stroke-dasharray:2.0,2.0;" x1="28.5" x2="70.5" y1="535.7891" y2="535.7891"/><line style="stroke:#FF0000;stroke-width:1.0;stroke-dasharray:2.0,2.0;" x1="70.5" x2="70.5" y1="535.7891" y2="548.7891"/><line style="stroke:#FF0000;stroke-width:1.0;stroke-dasharray:2.0,2.0;" x1="29.5" x2="70.5" y1="548.7891" y2="548.7891"/><polygon fill="#FF0000" points="39.5,544.7891,29.5,548.7891,39.5,552.7891,35.5,548.7891" style="stroke:#FF0000;stroke-width:1.0;"/><text fill="#000000" font-family="sans-serif" font-size="13" lengthAdjust="spacing" textLength="84" x="35.5" y="530.9326">Timeout ID=01</text><polygon fill="#181818" points="321.5,575.1406,331.5,579.1406,321.5,583.1406,325.5,579.1406" style="stroke:#181818;stroke-width:1.0;"/><line style="stroke:#181818;stroke-width:1.0;" x1="28.5" x2="327.5" y1="579.1406" y2="579.1406"/><text fill="#000000" font-family="sans-serif" font-size="13" lengthAdjust="spacing" textLength="92" x="35.5" y="574.2842">RESEND ID=01</text><polygon fill="#181818" points="39.5,605.4922,29.5,609.4922,39.5,613.4922,35.5,609.4922" style="stroke:#181818;stroke-width:1.0;"/><line style="stroke:#181818;stroke-width:1.0;" x1="33.5" x2="332.5" y1="609.4922" y2="609.4922"/><text fill="#000000" font-family="sans-serif" font-size="13" lengthAdjust="spacing" textLength="142" x="45.5" y="604.6357">Send [ID=01, Response]</text><polygon fill="#181818" points="321.5,635.8438,331.5,639.8438,321.5,643.8438,325.5,639.8438" style="stroke:#181818;stroke-width:1.0;"/><line style="stroke:#181818;stroke-width:1.0;" x1="28.5" x2="327.5" y1="639.8438" y2="639.8438"/><text fill="#000000" font-family="sans-serif" font-size="13" lengthAdjust="spacing" textLength="57" x="35.5" y="634.9873">OK ID=01</text><line style="stroke:#181818;stroke-width:1.0;" x1="129.25" x2="129.25" y1="108.5703" y2="536.2891"/><polygon fill="#181818" points="125.25,118.5703,129.25,108.5703,133.25,118.5703,129.25,114.5703" style="stroke:#181818;stroke-width:1.0;"/><polygon fill="#181818" points="125.25,526.2891,129.25,536.2891,133.25,526.2891,129.25,530.2891" style="stroke:#181818;stroke-width:1.0;"/><text fill="#000000" font-family="sans-serif" font-size="13" lengthAdjust="spacing" textLength="40" x="133.25" y="327.749">timer 1</text><line style="stroke:#181818;stroke-width:1.0;" x1="181" x2="181" y1="138.9219" y2="429.7344"/><polygon fill="#181818" points="177,148.9219,181,138.9219,185,148.9219,181,144.9219" style="stroke:#181818;stroke-width:1.0;"/><polygon fill="#181818" points="177,419.7344,181,429.7344,185,419.7344,181,423.7344" style="stroke:#181818;stroke-width:1.0;"/><text fill="#000000" font-family="sans-serif" font-size="13" lengthAdjust="spacing" textLength="40" x="185" y="289.6475">timer 2</text><line style="stroke:#181818;stroke-width:1.0;" x1="181" x2="181" y1="169.2734" y2="460.0859"/><polygon fill="#181818" points="177,179.2734,181,169.2734,185,179.2734,181,175.2734" style="stroke:#181818;stroke-width:1.0;"/><polygon fill="#181818" points="177,450.0859,181,460.0859,185,450.0859,181,454.0859" style="stroke:#181818;stroke-width:1.0;"/><text fill="#000000" font-family="sans-serif" font-size="13" lengthAdjust="spacing" textLength="40" x="185" y="319.999">timer 3</text><line style="stroke:#181818;stroke-width:1.0;" x1="129.25" x2="129.25" y1="540.2891" y2="607.4922"/><polygon fill="#181818" points="125.25,550.2891,129.25,540.2891,133.25,550.2891,129.25,546.2891" style="stroke:#181818;stroke-width:1.0;"/><polygon fill="#181818" points="125.25,597.4922,129.25,607.4922,133.25,597.4922,129.25,601.4922" style="stroke:#181818;stroke-width:1.0;"/><text fill="#000000" font-family="sans-serif" font-size="13" lengthAdjust="spacing" textLength="40" x="133.25" y="579.21">timer 1</text><!--SRC=[bP9DQuD048Rl-okcwJM5wFOaJI6e1sdzm9X22L94XoBurTsrXuR-zox6ZPPgfBTbtvbdtlaGkIWGLcvRYBoHBxCkowJAE9ZFZkr5RtixVB53Y1pNzW_HYjmqB7al4n1OVu5WBHBI94paQTuabO2qoB4IlxuuiazaX9ouaB_QTny3Tu-zP4287oro0KV7scwqDGIXuuTEzBhT1S4QJDzrTvuLzmHzaQ2F20VPm1y4NKJGMHFa73_E35YT8kUBnOVCStK3zbXbbxGGULDN76Coc5E1geIAMRGnty0r5_I_BauoTN8X_XDiz4wcSp9TR6B-5Ff5tW_iuot3B1wPZV8IwrP01o8J-xRtjcVrSkTKqguDHviUpgWbnLAN_Y1bPTG08Gqnq8OpxkHkW4hKXmDL8hs8T6XQYIFi3m00]--></g></svg>