<?xml version="1.0" encoding="us-ascii" standalone="no"?><svg xmlns="http://www.w3.org/2000/svg" xmlns:xlink="http://www.w3.org/1999/xlink" contentStyleType="text/css" height="347px" preserveAspectRatio="none" style="width:217px;height:347px;background:#FFFFFF;" version="1.1" viewBox="0 0 217 347" width="217px" zoomAndPan="magnify"><defs/><g><text fill="#000000" font-family="sans-serif" font-size="14" font-weight="bold" lengthAdjust="spacing" textLength="117" x="52.25" y="29.5332">Simple CRA Flow</text><rect fill="#FFFFFF" height="80.3516" style="stroke:#181818;stroke-width:1.0;" width="10" x="23.5" y="178.9219"/><rect fill="#FFFFFF" height="30.3516" style="stroke:#181818;stroke-width:1.0;" width="10" x="129.5" y="128.5703"/><rect fill="#FFFFFF" height="82.3516" style="stroke:#181818;stroke-width:1.0;" width="10" x="129.5" y="249.2734"/><line style="stroke:#181818;stroke-width:0.5;stroke-dasharray:5.0,5.0;" x1="28" x2="28" y1="76.2188" y2="340.625"/><line style="stroke:#181818;stroke-width:0.5;stroke-dasharray:5.0,5.0;" x1="134.5" x2="134.5" y1="76.2188" y2="340.625"/><rect fill="#E2E2F0" height="31.6094" rx="2.5" ry="2.5" style="stroke:#181818;stroke-width:0.5;" width="47" x="5" y="43.6094"/><text fill="#000000" font-family="sans-serif" font-size="14" lengthAdjust="spacing" textLength="33" x="12" y="65.1426">client</text><rect fill="#E2E2F0" height="31.6094" rx="2.5" ry="2.5" style="stroke:#181818;stroke-width:0.5;" width="54" x="107.5" y="43.6094"/><text fill="#000000" font-family="sans-serif" font-size="14" lengthAdjust="spacing" textLength="40" x="114.5" y="65.1426">server</text><rect fill="#FFFFFF" height="80.3516" style="stroke:#181818;stroke-width:1.0;" width="10" x="23.5" y="178.9219"/><rect fill="#FFFFFF" height="30.3516" style="stroke:#181818;stroke-width:1.0;" width="10" x="129.5" y="128.5703"/><rect fill="#FFFFFF" height="82.3516" style="stroke:#181818;stroke-width:1.0;" width="10" x="129.5" y="249.2734"/><polygon fill="#181818" points="118.4675,122.704,127.5,128.5703,116.9135,130.5516" style="stroke:#181818;stroke-width:1.0;"/><line style="stroke:#181818;stroke-width:1.0;" x1="28.5" x2="127.5" y1="108.5703" y2="128.5703"/><text fill="#000000" font-family="sans-serif" font-size="13" lengthAdjust="spacing" textLength="59" x="35.5" y="103.7139">Command</text><polygon fill="#181818" points="43.5325,173.0556,34.5,178.9219,45.0865,180.9032" style="stroke:#181818;stroke-width:1.0;"/><line style="stroke:#181818;stroke-width:1.0;stroke-dasharray:2.0,2.0;" x1="133.5" x2="33.5" y1="158.9219" y2="178.9219"/><text fill="#000000" font-family="sans-serif" font-size="13" lengthAdjust="spacing" textLength="58" x="50.5" y="154.0654">Response</text><polygon fill="#181818" points="118.526,243.318,127.5,249.2734,116.8944,251.1498" style="stroke:#181818;stroke-width:1.0;"/><line style="stroke:#181818;stroke-width:1.0;" x1="33.5" x2="127.5" y1="229.2734" y2="249.2734"/><text fill="#000000" font-family="sans-serif" font-size="13" lengthAdjust="spacing" textLength="77" x="40.5" y="224.417">Acknowledge</text><line style="stroke:#181818;stroke-width:1.0;" x1="139.5" x2="181.5" y1="309.625" y2="309.625"/><line style="stroke:#181818;stroke-width:1.0;" x1="181.5" x2="181.5" y1="309.625" y2="322.625"/><line style="stroke:#181818;stroke-width:1.0;" x1="140.5" x2="181.5" y1="322.625" y2="322.625"/><polygon fill="#181818" points="150.5,318.625,140.5,322.625,150.5,326.625" style="stroke:#181818;stroke-width:1.0;"/><text fill="#000000" font-family="sans-serif" font-size="13" lengthAdjust="spacing" textLength="64" x="146.5" y="304.7686">Close CRA</text><!--SRC=[TOxD2i8m48JlUOgb9wK4n6CFXLBm0UeJX6IHqCqFsMsBRsymUX4y3SmtixFYXH2wkm-vwhnCSADqT8fN7xCf9W3BinAMugriWPIov36A7a_Novcnx5ZwVe0vXM2YKytH3N-YUe05EQV8g8mLlnj1QEpFjSckCHs4xe7AuM_dEp8shUEK-Ftz2m00]--></g></svg>